<svg width="32" height="33" viewBox="0 0 32 33" fill="none" xmlns="http://www.w3.org/2000/svg">
<path d="M16 19.5676C14.5 19.5676 13.2 18.3676 13.2 16.7676C13.2 15.2676 14.4 13.9676 16 13.9676C17.5 13.9676 18.8 15.1676 18.8 16.7676C18.8 18.2676 17.5 19.5676 16 19.5676Z" fill="#FEDC56"/>
<path fill-rule="evenodd" clip-rule="evenodd" d="M19.4 9.96758H12.6C11.8 10.0676 11.4 10.1676 11.1 10.2676C10.7 10.3676 10.4 10.5676 10.1 10.8676C9.86261 11.105 9.75045 11.3423 9.61489 11.6293C9.57916 11.7049 9.5417 11.7842 9.5 11.8676C9.48453 11.914 9.46667 11.9628 9.44752 12.0151C9.34291 12.3009 9.2 12.6913 9.2 13.3676V20.1676C9.3 20.9676 9.4 21.3676 9.5 21.6676C9.6 22.0676 9.8 22.3676 10.1 22.6676C10.3374 22.905 10.5748 23.0171 10.8617 23.1527C10.9374 23.1884 11.0165 23.2258 11.1 23.2676C11.1464 23.283 11.1952 23.3009 11.2475 23.3201C11.5333 23.4247 11.9238 23.5676 12.6 23.5676H19.4C20.2 23.4676 20.6 23.3676 20.9 23.2676C21.3 23.1676 21.6 22.9676 21.9 22.6676C22.1374 22.4302 22.2495 22.1928 22.3851 21.9059C22.4209 21.8302 22.4583 21.751 22.5 21.6676C22.5155 21.6212 22.5333 21.5724 22.5525 21.5201C22.6571 21.2342 22.8 20.8438 22.8 20.1676V13.3676C22.7 12.5676 22.6 12.1676 22.5 11.8676C22.4 11.4676 22.2 11.1676 21.9 10.8676C21.6626 10.6302 21.4252 10.518 21.1383 10.3825C21.0627 10.3468 20.9833 10.3092 20.9 10.2676C20.8536 10.2521 20.8048 10.2342 20.7525 10.2151C20.4667 10.1105 20.0762 9.96758 19.4 9.96758ZM16 12.4676C13.6 12.4676 11.7 14.3676 11.7 16.7676C11.7 19.1676 13.6 21.0676 16 21.0676C18.4 21.0676 20.3 19.1676 20.3 16.7676C20.3 14.3676 18.4 12.4676 16 12.4676ZM21.4 12.3676C21.4 12.9199 20.9523 13.3676 20.4 13.3676C19.8477 13.3676 19.4 12.9199 19.4 12.3676C19.4 11.8153 19.8477 11.3676 20.4 11.3676C20.9523 11.3676 21.4 11.8153 21.4 12.3676Z" fill="#FEDC56"/>
<path fill-rule="evenodd" clip-rule="evenodd" d="M0 5.76758C0 3.00615 2.23858 0.767578 5 0.767578H27C29.7614 0.767578 32 3.00615 32 5.76758V27.7676C32 30.529 29.7614 32.7676 27 32.7676H5C2.23858 32.7676 0 30.529 0 27.7676V5.76758ZM12.6 8.46758H19.4C20.3 8.56757 20.9 8.66758 21.4 8.86758C22 9.16758 22.4 9.36758 22.9 9.86758C23.4 10.3676 23.7 10.8676 23.9 11.3676C24.1 11.8676 24.3 12.4676 24.3 13.3676V20.1676C24.2 21.0676 24.1 21.6676 23.9 22.1676C23.6 22.7676 23.4 23.1676 22.9 23.6676C22.4 24.1676 21.9 24.4676 21.4 24.6676C20.9 24.8676 20.3 25.0676 19.4 25.0676H12.6C11.7 24.9676 11.1 24.8676 10.6 24.6676C10 24.3676 9.6 24.1676 9.1 23.6676C8.6 23.1676 8.3 22.6676 8.1 22.1676C7.9 21.6676 7.7 21.0676 7.7 20.1676V13.3676C7.8 12.4676 7.9 11.8676 8.1 11.3676C8.4 10.7676 8.6 10.3676 9.1 9.86758C9.6 9.36758 10.1 9.06758 10.6 8.86758C11.1 8.66758 11.7 8.46758 12.6 8.46758Z" fill="#FEDC56"/>
</svg>
