<svg width="146" height="152" viewBox="0 0 146 152" fill="none" xmlns="http://www.w3.org/2000/svg">
<path d="M107.858 106.305C99.9955 98.539 94.2613 89.5928 90.4529 79.4134C90.3287 79.0841 90.2355 78.7455 90.2821 78.3293C90.4436 78.5281 90.6206 78.7175 90.7697 78.9257C98.7778 89.9469 108.395 99.3559 119.332 107.448C119.764 107.768 120.196 107.939 120.733 107.988C125.495 108.42 130.254 108.877 135.022 109.392C130.916 109.473 126.809 109.557 122.693 109.638C123.271 110.43 128.586 113.872 133.513 116.667C137.268 118.798 141.111 120.749 145.074 122.476C145.056 122.535 145.037 122.594 145.015 122.653C143.764 122.526 142.509 122.43 141.263 122.265C134.886 121.423 128.769 119.684 122.973 116.863C119.062 114.962 115.412 112.648 112.033 109.914C111.582 109.551 111.129 109.408 110.557 109.371C105.329 109.048 100.098 108.753 94.8794 108.336C88.5083 107.83 82.187 106.923 75.9029 105.767C64.5866 103.686 53.5498 100.661 42.9977 96.0073C42.833 95.9359 42.6622 95.8706 42.4354 95.7805C42.3547 95.9825 42.2584 96.1626 42.2118 96.3552C40.64 103.202 39.2887 110.088 38.3693 117.053C37.9344 120.352 37.4871 123.657 37.2634 126.974C37.0739 129.776 37.0957 132.606 37.2044 135.417C37.4032 140.595 38.0493 145.733 39.0899 150.815C39.1148 150.93 39.1054 151.051 38.9812 151.231C38.8352 150.961 38.6768 150.7 38.5463 150.424C36.7695 146.749 35.6171 142.869 34.7504 138.896C33.5482 133.376 32.9922 127.782 32.8773 122.138C32.7126 114.21 33.3898 106.351 34.7038 98.539C35.0393 96.5447 35.4058 94.5536 35.7693 92.5003C35.4214 92.3077 35.0828 92.1151 34.7442 91.9287C28.2737 88.3471 22.2785 84.1132 16.9947 78.9163C9.90605 71.9396 4.55076 63.8724 1.60907 54.2988C0.903939 52.0094 0.400715 49.6735 0.0962959 47.2971C0.0465948 46.9088 0.0403821 46.5174 0 45.8993C0.382077 46.2254 0.62437 46.4211 0.857344 46.6293C5.72805 51.0123 10.8628 55.0567 16.42 58.5451C22.5022 62.3659 28.9229 65.4442 35.8842 67.3142C37.9872 67.8796 40.1119 68.33 42.3578 68.6375C50.6485 44.5791 62.4091 22.2571 75.8501 0.767578C75.9153 0.795535 75.9806 0.823492 76.0427 0.851449C75.7227 1.68705 75.4059 2.52575 75.0859 3.36135C72.2157 10.8103 69.9792 18.4332 68.777 26.3388C68.3017 29.4575 68.0626 32.598 68.2023 35.754C68.3266 38.5839 68.7366 41.361 69.8363 43.9951C71.6752 48.4123 74.9865 50.9812 79.6802 51.8044C81.5502 52.1306 83.4171 52.1896 85.2716 51.733C87.7659 51.1179 89.6794 49.661 91.1425 47.5736C92.6087 45.4799 93.4412 43.1191 93.991 40.6496C94.9446 36.366 95.159 32.014 95.0223 27.6434C94.7551 19.1756 93.5779 10.8258 91.6426 2.57856C91.5308 2.1064 91.4128 1.64045 91.3009 1.16829C91.2947 1.14344 91.3165 1.11238 91.3475 1.00055C91.4718 1.19625 91.5898 1.33914 91.6644 1.50067C95.1714 9.04281 98.0758 16.79 99.719 24.972C100.632 29.5321 101.108 34.1325 100.875 38.7858C100.477 46.7846 98.0634 54.0441 92.851 60.2505C89.5738 64.152 85.5915 67.1776 81.1339 69.6036C75.965 72.4148 70.4513 74.2972 64.7264 75.5926C59.0698 76.8724 53.3448 77.6024 47.5422 77.6956C47.4242 77.6956 47.303 77.7142 47.0701 77.7359C46.017 81.2896 45.0416 84.8929 44.1253 88.5459C44.4763 88.7416 44.7589 88.9094 45.0509 89.0585C52.124 92.7084 59.5543 95.4544 67.1555 97.7562C75.7072 100.347 84.3987 102.375 93.1896 103.963C97.7745 104.789 102.381 105.503 106.979 106.264C107.205 106.302 107.438 106.289 107.867 106.308L107.858 106.305ZM49.6048 69.1408C58.9082 69.0445 67.2829 66.4103 75.1698 61.5862C74.8809 61.4495 74.7536 61.3843 74.62 61.3284C72.3027 60.3685 70.414 58.8433 68.8143 56.936C66.8822 54.6311 65.5433 52.0032 64.5866 49.1702C63.0583 44.6474 62.4494 39.9942 62.6793 35.2291C62.6917 34.9806 62.6793 34.729 62.6793 34.4805C62.4339 34.7321 62.3065 34.9992 62.1947 35.2726C60.3061 39.9569 58.4143 44.6381 56.535 49.3287C55.4105 52.1368 54.2332 54.9262 53.2299 57.7747C52.124 60.909 51.1859 64.1054 50.1764 67.2739C49.9962 67.8454 49.8254 68.4201 49.6017 69.1408H49.6048ZM39.6397 77.1333C37.2727 76.5959 34.9554 76.1548 32.6909 75.5274C30.4264 74.8999 28.2147 74.0829 25.8663 73.3125C28.9726 77.9969 33.0171 81.5288 37.574 84.6537C38.2823 82.0786 38.9532 79.6339 39.6397 77.1333Z" fill="#FEDC56"/>
</svg>
