<svg width="135" height="54" viewBox="0 0 135 54" fill="none" xmlns="http://www.w3.org/2000/svg">
<path d="M54.7692 29.826L52.231 25.3426H51.1434V29.826H48.8352V18.3185H53.1546C54.0445 18.3185 54.8027 18.4748 55.4292 18.7887C56.0557 19.1026 56.5258 19.5249 56.8384 20.0584C57.151 20.5918 57.3086 21.1873 57.3086 21.8474C57.3086 22.6056 57.089 23.2901 56.6498 23.8998C56.2107 24.5095 55.5558 24.9306 54.6878 25.1605L57.4403 29.826H54.7692ZM51.1422 23.6105H53.0706C53.6971 23.6105 54.1634 23.4594 54.4721 23.1571C54.7795 22.8549 54.9332 22.4351 54.9332 21.8964C54.9332 21.3578 54.7795 20.96 54.4721 20.6681C54.1647 20.3774 53.6971 20.2315 53.0706 20.2315H51.1422V23.6105Z" fill="#F4F7FB"/>
<path d="M67.8253 25.951H61.1487C61.2029 26.6098 61.4341 27.1277 61.841 27.501C62.2479 27.8743 62.7478 28.0616 63.3419 28.0616C64.1996 28.0616 64.8093 27.6935 65.1722 26.9572H67.6613C67.3978 27.8369 66.8914 28.5589 66.1449 29.1247C65.397 29.6904 64.4799 29.9733 63.3923 29.9733C62.5127 29.9733 61.7248 29.7782 61.0273 29.3882C60.3298 28.9981 59.7847 28.4465 59.3959 27.7309C59.0058 27.0167 58.8108 26.1926 58.8108 25.2587C58.8108 24.3248 59.0032 23.4839 59.3881 22.7696C59.7731 22.0554 60.3117 21.5064 61.004 21.1215C61.6964 20.7366 62.4933 20.5441 63.3949 20.5441C64.2965 20.5441 65.0405 20.7314 65.7277 21.1047C66.4148 21.478 66.9483 22.0089 67.3267 22.696C67.7065 23.3832 67.8951 24.1711 67.8951 25.0611C67.8951 25.3904 67.8731 25.6875 67.8292 25.951H67.8253ZM65.5016 24.401C65.49 23.8081 65.2769 23.3328 64.8584 22.975C64.4411 22.6185 63.9296 22.439 63.3251 22.439C62.7542 22.439 62.2724 22.6121 61.8823 22.9582C61.4923 23.3044 61.2533 23.7849 61.1655 24.401H65.5016Z" fill="#F4F7FB"/>
<path d="M82.2326 20.6927L79.5627 29.826H77.0737L75.4087 23.4465L73.7438 29.826H71.2379L68.5513 20.6927H70.8918L72.5077 27.6496L74.2553 20.6927H76.6952L78.4093 27.6328L80.0252 20.6927H82.2339H82.2326Z" fill="#F4F7FB"/>
<path d="M83.4442 22.7696C83.8123 22.0554 84.3122 21.5064 84.9438 21.1215C85.5754 20.7366 86.282 20.5441 87.0621 20.5441C87.7441 20.5441 88.3396 20.681 88.8511 20.9561C89.3626 21.2313 89.7708 21.5774 90.0795 21.9946V20.6926H92.4045V29.826H90.0795V28.4904C89.7824 28.9193 89.3729 29.2732 88.8511 29.5535C88.3293 29.8338 87.7274 29.9733 87.0466 29.9733C86.2768 29.9733 85.5767 29.7757 84.9451 29.3804C84.3135 28.9852 83.8136 28.4272 83.4455 27.7077C83.0773 26.9882 82.8926 26.1616 82.8926 25.2264C82.8926 24.2912 83.0761 23.4852 83.4455 22.7696H83.4442ZM89.7501 23.8159C89.5305 23.4142 89.2334 23.1068 88.8601 22.8924C88.4869 22.6779 88.0851 22.5707 87.6563 22.5707C87.2275 22.5707 86.8322 22.6754 86.4693 22.8833C86.1063 23.0926 85.8118 23.3974 85.5871 23.7978C85.3623 24.1995 85.2486 24.6749 85.2486 25.2238C85.2486 25.7728 85.361 26.2546 85.5871 26.6666C85.8118 27.0787 86.1089 27.3951 86.477 27.6147C86.8451 27.8343 87.2378 27.9441 87.655 27.9441C88.0722 27.9441 88.4843 27.8369 88.8589 27.6224C89.2322 27.408 89.5292 27.1006 89.7488 26.6989C89.9684 26.2985 90.0782 25.8167 90.0782 25.2561C90.0782 24.6955 89.9684 24.215 89.7488 23.8133L89.7501 23.8159Z" fill="#F4F7FB"/>
<path d="M98.1317 20.9729C98.6096 20.6978 99.156 20.5609 99.7721 20.5609V22.984H99.1625C98.4366 22.984 97.8902 23.1545 97.5221 23.4955C97.1539 23.8365 96.9692 24.4294 96.9692 25.2754V29.8247H94.661V20.6926H96.9692V22.1109C97.2663 21.6278 97.6538 21.248 98.1317 20.9729Z" fill="#F4F7FB"/>
<path d="M101.281 22.7697C101.649 22.0554 102.151 21.5065 102.79 21.1215C103.426 20.7366 104.135 20.5442 104.916 20.5442C105.508 20.5442 106.076 20.6733 106.614 20.9317C107.153 21.19 107.58 21.5336 107.899 21.9624V17.6263H110.24V29.8248H107.899V28.4724C107.614 28.9232 107.212 29.2862 106.696 29.56C106.179 29.8351 105.58 29.9721 104.899 29.9721C104.129 29.9721 103.426 29.7744 102.788 29.3792C102.15 28.9839 101.648 28.4259 101.28 27.7065C100.911 26.987 100.727 26.1603 100.727 25.2252C100.727 24.29 100.91 23.484 101.28 22.7684L101.281 22.7697ZM107.587 23.816C107.367 23.4143 107.07 23.1068 106.697 22.8924C106.324 22.678 105.922 22.5708 105.493 22.5708C105.064 22.5708 104.669 22.6754 104.306 22.8834C103.943 23.0926 103.65 23.3975 103.424 23.7979C103.199 24.1996 103.085 24.6749 103.085 25.2239C103.085 25.7728 103.198 26.2546 103.424 26.6667C103.65 27.0787 103.946 27.3952 104.314 27.6148C104.682 27.8343 105.074 27.9441 105.492 27.9441C105.909 27.9441 106.321 27.8369 106.696 27.6225C107.07 27.4081 107.366 27.1007 107.585 26.699C107.805 26.2985 107.915 25.8168 107.915 25.2562C107.915 24.6956 107.805 24.2151 107.585 23.8134L107.587 23.816Z" fill="#F4F7FB"/>
<path d="M113.982 29.5703C113.389 29.3016 112.919 28.9361 112.573 28.4737C112.226 28.0125 112.037 27.501 112.004 26.9404H114.328C114.372 27.2918 114.545 27.5837 114.847 27.8136C115.149 28.0448 115.525 28.1598 115.976 28.1598C116.427 28.1598 116.759 28.0719 117.007 27.8963C117.254 27.7206 117.378 27.4959 117.378 27.2207C117.378 26.9237 117.226 26.7015 116.924 26.5529C116.622 26.4044 116.141 26.2429 115.481 26.0673C114.799 25.9019 114.243 25.7327 113.809 25.5558C113.375 25.3801 113.001 25.1101 112.688 24.7485C112.375 24.3855 112.217 23.8973 112.217 23.2811C112.217 22.7761 112.363 22.3137 112.654 21.8965C112.945 21.4793 113.363 21.1486 113.907 20.9071C114.451 20.6655 115.091 20.5441 115.828 20.5441C116.915 20.5441 117.783 20.8166 118.432 21.3604C119.08 21.9042 119.438 22.6379 119.502 23.5614H117.294C117.261 23.1985 117.109 22.9104 116.84 22.696C116.57 22.4816 116.211 22.3744 115.76 22.3744C115.343 22.3744 115.022 22.4519 114.797 22.6056C114.571 22.7593 114.458 22.9737 114.458 23.2489C114.458 23.5563 114.612 23.7901 114.92 23.9489C115.227 24.1078 115.705 24.2706 116.353 24.4359C117.012 24.6012 117.557 24.7717 117.985 24.9474C118.414 25.1231 118.784 25.3956 119.097 25.7637C119.411 26.1319 119.572 26.6188 119.584 27.222C119.584 27.749 119.438 28.2218 119.147 28.6403C118.857 29.0575 118.438 29.3856 117.894 29.6207C117.35 29.857 116.716 29.9746 115.99 29.9746C115.264 29.9746 114.572 29.8402 113.979 29.5703H113.982Z" fill="#F4F7FB"/>
<path d="M43.7868 34.9714C41.7188 32.9287 40.2105 30.5755 39.2087 27.898C39.176 27.8114 39.1515 27.7223 39.1638 27.6128C39.2063 27.6651 39.2529 27.7149 39.2921 27.7697C41.3985 30.6687 43.9282 33.1436 46.8051 35.2721C46.9187 35.3563 47.0323 35.4012 47.1736 35.4143C48.4262 35.5278 49.678 35.648 50.9322 35.7836C49.852 35.8048 48.7718 35.8269 47.6892 35.8481C47.8412 36.0565 49.2392 36.9618 50.5351 37.6972C51.5229 38.2577 52.5336 38.7708 53.5762 39.2251C53.5713 39.2407 53.5664 39.2562 53.5607 39.2717C53.2314 39.2382 52.9013 39.2129 52.5737 39.1696C50.8962 38.9481 49.2874 38.4906 47.7627 37.7487C46.734 37.2486 45.774 36.6399 44.885 35.9209C44.7665 35.8253 44.6472 35.7877 44.4969 35.7779C43.1217 35.6929 41.7458 35.6153 40.3731 35.5058C38.6972 35.3726 37.0345 35.134 35.3815 34.8301C32.4049 34.2826 29.5018 33.4868 26.7262 32.2628C26.6829 32.244 26.638 32.2268 26.5783 32.2032C26.5571 32.2563 26.5318 32.3037 26.5195 32.3543C26.1061 34.1552 25.7506 35.9666 25.5088 37.7985C25.3944 38.6662 25.2767 39.5356 25.2179 40.4083C25.1681 41.1453 25.1738 41.8896 25.2024 42.6291C25.2547 43.9911 25.4246 45.3426 25.6983 46.6793C25.7049 46.7096 25.7024 46.7414 25.6697 46.7888C25.6313 46.7177 25.5897 46.6491 25.5554 46.5764C25.088 45.6098 24.7848 44.5892 24.5569 43.5442C24.2407 42.0923 24.0944 40.6207 24.0642 39.1361C24.0209 37.0509 24.199 34.9837 24.5446 32.9287C24.6329 32.4042 24.7293 31.8804 24.8249 31.3403C24.7334 31.2897 24.6443 31.239 24.5553 31.19C22.8533 30.2479 21.2763 29.1342 19.8865 27.7672C18.0219 25.9321 16.6132 23.8101 15.8395 21.2919C15.654 20.6897 15.5216 20.0753 15.4416 19.4502C15.4285 19.3481 15.4269 19.2451 15.4162 19.0825C15.5167 19.1683 15.5805 19.2198 15.6417 19.2745C16.9229 20.4274 18.2736 21.4913 19.7353 22.4088C21.3351 23.4138 23.024 24.2236 24.8551 24.7154C25.4083 24.8642 25.9672 24.9826 26.5579 25.0635C28.7387 18.7353 31.8321 12.8637 35.3676 7.21118C35.3848 7.21854 35.402 7.22589 35.4183 7.23324C35.3341 7.45304 35.2508 7.67365 35.1666 7.89344C34.4117 9.8528 33.8234 11.8579 33.5072 13.9374C33.3821 14.7577 33.3192 15.5838 33.356 16.4139C33.3887 17.1583 33.4965 17.8888 33.7858 18.5816C34.2695 19.7435 35.1405 20.4193 36.3751 20.6358C36.867 20.7216 37.358 20.7371 37.8458 20.617C38.502 20.4552 39.0053 20.072 39.3901 19.5229C39.7758 18.9722 39.9948 18.3512 40.1394 17.7016C40.3902 16.5749 40.4466 15.4302 40.4107 14.2805C40.3404 12.0532 40.0307 9.85688 39.5217 7.68754C39.4923 7.56334 39.4612 7.44078 39.4318 7.31658C39.4302 7.31005 39.4359 7.30188 39.444 7.27246C39.4767 7.32394 39.5078 7.36152 39.5274 7.40401C40.4499 9.38788 41.2138 11.4257 41.6461 13.5779C41.8863 14.7773 42.0113 15.9874 41.95 17.2114C41.8454 19.3154 41.2106 21.2249 39.8395 22.8574C38.9775 23.8837 37.93 24.6795 36.7575 25.3176C35.3979 26.0571 33.9476 26.5522 32.4417 26.893C30.9538 27.2296 29.4479 27.4216 27.9216 27.4461C27.8906 27.4461 27.8587 27.451 27.7974 27.4567C27.5204 28.3915 27.2639 29.3393 27.0228 30.3002C27.1152 30.3517 27.1895 30.3958 27.2663 30.435C29.1268 31.3951 31.0813 32.1174 33.0806 32.7228C35.3301 33.4043 37.6162 33.9378 39.9286 34.3553C41.1346 34.5727 42.3463 34.7606 43.5556 34.9608C43.6152 34.9706 43.6765 34.9673 43.7893 34.9722L43.7868 34.9714ZM28.4642 25.1959C30.9113 25.1706 33.1141 24.4777 35.1887 23.2088C35.1127 23.1728 35.0792 23.1556 35.0441 23.1409C34.4345 22.8885 33.9378 22.4873 33.517 21.9856C33.0087 21.3793 32.6566 20.6881 32.4049 19.9429C32.0029 18.7532 31.8428 17.5292 31.9032 16.2758C31.9065 16.2105 31.9032 16.1443 31.9032 16.0789C31.8387 16.1451 31.8052 16.2154 31.7758 16.2873C31.279 17.5194 30.7814 18.7508 30.2871 19.9846C29.9913 20.7232 29.6816 21.4569 29.4177 22.2062C29.1268 23.0306 28.88 23.8714 28.6145 24.7048C28.5671 24.8552 28.523 25.0063 28.4642 25.1959ZM25.843 27.2982C25.2204 27.1569 24.6108 27.0409 24.0152 26.8758C23.4195 26.7108 22.8378 26.4959 22.22 26.2932C23.0371 27.5254 24.101 28.4544 25.2996 29.2764C25.4859 28.599 25.6624 27.956 25.843 27.2982Z" fill="#FEDC56"/>
</svg>
