<svg width="159" height="62" viewBox="0 0 159 62" fill="none" xmlns="http://www.w3.org/2000/svg">
<path d="M73.3196 27.4064V37.8503H69.9188V36.4278C69.5741 36.8895 69.1034 37.2638 68.5068 37.5508C67.9234 37.8253 67.2737 37.9626 66.5578 37.9626C65.7093 37.9626 64.9602 37.7879 64.3105 37.4385C63.6608 37.0766 63.157 36.5588 62.799 35.885C62.4411 35.2112 62.2621 34.4189 62.2621 33.508V27.4064H65.643V33.0775C65.643 33.7763 65.8352 34.3191 66.2197 34.7059C66.6042 35.0927 67.1213 35.2861 67.7709 35.2861C68.4339 35.2861 68.9576 35.0927 69.3421 34.7059C69.7265 34.3191 69.9188 33.7763 69.9188 33.0775V27.4064H73.3196Z" fill="white"/>
<path d="M79.1631 29.1471C79.5608 28.5731 80.058 28.1239 80.6546 27.7995C81.2513 27.4626 81.9142 27.2941 82.6434 27.2941V30.6818H81.7087C80.8602 30.6818 80.2238 30.8565 79.7995 31.2059C79.3752 31.5428 79.1631 32.1417 79.1631 33.0027V37.8503H75.7623V27.4064H79.1631V29.1471Z" fill="white"/>
<path d="M94.7298 32.4599C94.7298 32.7594 94.7099 33.0713 94.6701 33.3957H86.9736C87.0266 34.0446 87.2454 34.5437 87.6299 34.893C88.0276 35.2299 88.5116 35.3984 89.0817 35.3984C89.9302 35.3984 90.5202 35.0615 90.8517 34.3877H94.4712C94.2856 35.074 93.9475 35.6916 93.457 36.2406C92.9797 36.7897 92.3764 37.2201 91.6472 37.5321C90.918 37.844 90.1026 38 89.201 38C88.1138 38 87.146 37.7816 86.2974 37.3449C85.4489 36.9082 84.786 36.2843 84.3087 35.4733C83.8314 34.6622 83.5927 33.7139 83.5927 32.6283C83.5927 31.5428 83.8247 30.5945 84.2888 29.7834C84.7661 28.9724 85.429 28.3485 86.2775 27.9118C87.1261 27.475 88.1006 27.2567 89.201 27.2567C90.2749 27.2567 91.2295 27.4688 92.0648 27.893C92.9001 28.3173 93.5498 28.9225 94.0138 29.7086C94.4911 30.4947 94.7298 31.4118 94.7298 32.4599ZM91.2494 31.6176C91.2494 31.0686 91.0506 30.6319 90.6528 30.3075C90.2551 29.9831 89.7579 29.8209 89.1612 29.8209C88.5911 29.8209 88.1072 29.9768 87.7094 30.2888C87.325 30.6007 87.0863 31.0437 86.9935 31.6176H91.2494Z" fill="white"/>
<path d="M112.454 27.4064L109.451 37.8503H105.692L103.942 31.0749L102.132 37.8503H98.3933L95.3703 27.4064H98.7711L100.342 34.8743L102.212 27.4064H105.811L107.701 34.8369L109.252 27.4064H112.454Z" fill="white"/>
<path d="M113.074 32.6096C113.074 31.5365 113.287 30.5945 113.711 29.7834C114.148 28.9724 114.738 28.3485 115.481 27.9118C116.223 27.475 117.052 27.2567 117.967 27.2567C118.749 27.2567 119.432 27.4064 120.015 27.7059C120.612 28.0053 121.069 28.3984 121.387 28.885V27.4064H124.788V37.8503H121.387V36.3717C121.056 36.8583 120.592 37.2513 119.995 37.5508C119.412 37.8503 118.729 38 117.947 38C117.045 38 116.223 37.7816 115.481 37.3449C114.738 36.8957 114.148 36.2656 113.711 35.4545C113.287 34.631 113.074 33.6827 113.074 32.6096ZM121.387 32.6283C121.387 31.8298 121.149 31.1996 120.672 30.738C120.207 30.2763 119.637 30.0455 118.961 30.0455C118.285 30.0455 117.708 30.2763 117.231 30.738C116.767 31.1872 116.535 31.8111 116.535 32.6096C116.535 33.4082 116.767 34.0446 117.231 34.5187C117.708 34.9804 118.285 35.2112 118.961 35.2112C119.637 35.2112 120.207 34.9804 120.672 34.5187C121.149 34.057 121.387 33.4269 121.387 32.6283Z" fill="white"/>
<path d="M130.649 29.1471C131.047 28.5731 131.544 28.1239 132.141 27.7995C132.738 27.4626 133.4 27.2941 134.13 27.2941V30.6818H133.195C132.346 30.6818 131.71 30.8565 131.286 31.2059C130.861 31.5428 130.649 32.1417 130.649 33.0027V37.8503H127.249V27.4064H130.649V29.1471Z" fill="white"/>
<path d="M135.079 32.6096C135.079 31.5365 135.291 30.5945 135.715 29.7834C136.153 28.9724 136.743 28.3485 137.485 27.9118C138.228 27.475 139.056 27.2567 139.971 27.2567C140.701 27.2567 141.363 27.4002 141.96 27.6872C142.57 27.9742 143.047 28.361 143.392 28.8476V24H146.793V37.8503H143.392V36.3529C143.074 36.852 142.616 37.2513 142.02 37.5508C141.436 37.8503 140.754 38 139.971 38C139.056 38 138.228 37.7816 137.485 37.3449C136.743 36.8957 136.153 36.2656 135.715 35.4545C135.291 34.631 135.079 33.6827 135.079 32.6096ZM143.392 32.6283C143.392 31.8298 143.153 31.1996 142.676 30.738C142.212 30.2763 141.642 30.0455 140.966 30.0455C140.289 30.0455 139.713 30.2763 139.235 30.738C138.771 31.1872 138.539 31.8111 138.539 32.6096C138.539 33.4082 138.771 34.0446 139.235 34.5187C139.713 34.9804 140.289 35.2112 140.966 35.2112C141.642 35.2112 142.212 34.9804 142.676 34.5187C143.153 34.057 143.392 33.4269 143.392 32.6283Z" fill="white"/>
<path d="M153.767 38C152.8 38 151.938 37.844 151.182 37.5321C150.426 37.2201 149.83 36.7959 149.392 36.2594C148.955 35.7103 148.709 35.0989 148.656 34.4251H152.017C152.057 34.787 152.236 35.0802 152.554 35.3048C152.873 35.5294 153.264 35.6417 153.728 35.6417C154.152 35.6417 154.477 35.5668 154.702 35.4171C154.941 35.2549 155.06 35.049 155.06 34.7995C155.06 34.5 154.894 34.2816 154.563 34.1444C154.232 33.9947 153.695 33.8324 152.952 33.6578C152.157 33.4831 151.494 33.3021 150.963 33.115C150.433 32.9153 149.976 32.6096 149.591 32.1979C149.207 31.7736 149.014 31.2059 149.014 30.4947C149.014 29.8957 149.187 29.3529 149.531 28.8663C149.889 28.3672 150.407 27.9742 151.083 27.6872C151.772 27.4002 152.588 27.2567 153.529 27.2567C154.921 27.2567 156.015 27.5811 156.81 28.2299C157.619 28.8788 158.083 29.7398 158.202 30.8128H155.06C155.007 30.451 154.835 30.164 154.543 29.9519C154.265 29.7398 153.893 29.6337 153.429 29.6337C153.032 29.6337 152.727 29.7086 152.515 29.8583C152.302 29.9955 152.196 30.1889 152.196 30.4385C152.196 30.738 152.362 30.9626 152.694 31.1123C153.038 31.262 153.569 31.4118 154.285 31.5615C155.107 31.7611 155.776 31.9608 156.293 32.1604C156.81 32.3476 157.261 32.6595 157.646 33.0963C158.043 33.5205 158.249 34.0945 158.262 34.8182C158.262 35.4296 158.076 35.9786 157.705 36.4652C157.347 36.9394 156.824 37.3137 156.134 37.5882C155.458 37.8627 154.669 38 153.767 38Z" fill="white"/>
<path d="M42.6152 45.5789C41.4793 45.3145 40.409 44.9271 39.4007 44.4387C42.9854 43.4106 46.406 41.8041 49.4528 39.678C45.7222 41.6737 41.8622 43.0048 38.0313 43.6915C33.535 40.9558 30.3678 36.151 28.1196 31.3847C28.8216 36.2373 31.429 41.0678 35.3456 44.0679C26.6044 44.951 18.2098 42.4448 12.0578 36.722C11.8554 33.0592 12.0177 29.3871 12.5227 25.8143C14.1273 26.2237 15.7482 26.5817 17.3838 26.8736C24.0973 28.0101 32.1055 28.5187 38.3194 25.1974C40.2449 24.1013 41.8731 22.526 43.2279 20.7597C44.9637 19.0284 46.271 16.7903 46.9129 14.2768C48.3497 8.97808 45.9501 2.88253 41.3936 0C42.3107 0.927184 43.0984 1.95351 43.7384 3.04777C45.6183 6.21856 46.1744 10.2578 44.9874 13.704C43.5141 18.1269 39.439 21.9146 34.6946 21.8669C29.9557 21.9183 25.8532 18.1508 24.4 13.7168C22.7736 8.99277 24.5276 3.47924 28.1105 0.0605883C23.5175 2.8862 21.0596 8.97441 22.4782 14.2805C23.5285 18.3986 26.4768 22.056 30.4553 23.6294C31.8338 24.1692 33.2159 24.4281 34.5633 24.4409C28.0121 26.2696 19.6466 24.9403 12.9658 23.1521C13.0971 22.4636 13.2393 21.7806 13.3979 21.1031C15.3854 12.5858 19.9273 3.86113 28.1196 0.0201961C18.4978 3.23137 13.2849 12.9787 11.2391 22.6729C10.8216 22.5517 10.4095 22.4287 10.0102 22.3075C6.64427 21.2738 3.26561 19.917 0 18.5639L0.54518 21.0737C1.97651 27.7494 5.38981 34.102 10.5025 38.6131C10.838 41.5819 11.436 44.5177 12.3149 47.3672C13.2466 50.325 14.4755 53.2277 16.0673 55.8881C17.1577 57.7755 18.465 59.5381 19.9128 61.1593C15.699 55.0068 13.2338 47.6554 12.3477 40.1058C12.5774 40.2747 12.8108 40.4436 13.046 40.6052C19.9893 45.4743 28.6885 46.7448 36.8243 45.0722C38.2283 45.9131 39.7672 46.53 41.4209 46.8513C44.1906 47.3965 47.1481 47.0679 49.6552 45.9516C47.2301 46.1958 44.8525 46.1315 42.6116 45.5789H42.6152ZM3.82903 23.0327C6.10092 23.9012 8.40927 24.6778 10.7541 25.3387C10.6028 26.332 10.4824 27.318 10.3931 28.2892C10.1961 30.4649 10.1396 32.6552 10.2199 34.8419C7.41372 31.6822 5.20748 27.7366 3.8272 23.0309L3.82903 23.0327Z" fill="#FFC220"/>
<path d="M42.6152 45.5789C41.4793 45.3145 40.409 44.9271 39.4007 44.4387C42.9854 43.4106 46.406 41.8041 49.4528 39.678C45.7222 41.6737 41.8622 43.0048 38.0313 43.6915C33.535 40.9558 30.3678 36.151 28.1196 31.3847C28.8216 36.2373 31.429 41.0678 35.3456 44.0679C26.6044 44.951 18.2098 42.4448 12.0578 36.722C11.8554 33.0592 12.0177 29.3871 12.5227 25.8143C14.1273 26.2237 15.7482 26.5817 17.3838 26.8736C24.0973 28.0101 32.1055 28.5187 38.3194 25.1974C40.2449 24.1013 41.8731 22.526 43.2279 20.7597C44.9637 19.0284 46.271 16.7903 46.9129 14.2768C48.3497 8.97808 45.9501 2.88253 41.3936 0C42.3107 0.927184 43.0984 1.95351 43.7384 3.04777C45.6183 6.21856 46.1744 10.2578 44.9874 13.704C43.5141 18.1269 39.439 21.9146 34.6946 21.8669C29.9557 21.9183 25.8532 18.1508 24.4 13.7168C22.7736 8.99277 24.5276 3.47924 28.1105 0.0605883C23.5175 2.8862 21.0596 8.97441 22.4782 14.2805C23.5285 18.3986 26.4768 22.056 30.4553 23.6294C31.8338 24.1692 33.2159 24.4281 34.5633 24.4409C28.0121 26.2696 19.6466 24.9403 12.9658 23.1521C13.0971 22.4636 13.2393 21.7806 13.3979 21.1031C15.3854 12.5858 19.9273 3.86113 28.1196 0.0201961C18.4978 3.23137 13.2849 12.9787 11.2391 22.6729C10.8216 22.5517 10.4095 22.4287 10.0102 22.3075C6.64427 21.2738 3.26561 19.917 0 18.5639L0.54518 21.0737C1.97651 27.7494 5.38981 34.102 10.5025 38.6131C10.838 41.5819 11.436 44.5177 12.3149 47.3672C13.2466 50.325 14.4755 53.2277 16.0673 55.8881C17.1577 57.7755 18.465 59.5381 19.9128 61.1593C15.699 55.0068 13.2338 47.6554 12.3477 40.1058C12.5774 40.2747 12.8108 40.4436 13.046 40.6052C19.9893 45.4743 28.6885 46.7448 36.8243 45.0722C38.2283 45.9131 39.7672 46.53 41.4209 46.8513C44.1906 47.3965 47.1481 47.0679 49.6552 45.9516C47.2301 46.1958 44.8525 46.1315 42.6116 45.5789H42.6152ZM3.82903 23.0327C6.10092 23.9012 8.40927 24.6778 10.7541 25.3387C10.6028 26.332 10.4824 27.318 10.3931 28.2892C10.1961 30.4649 10.1396 32.6552 10.2199 34.8419C7.41372 31.6822 5.20748 27.7366 3.8272 23.0309L3.82903 23.0327Z" fill="#FFC220"/>
</svg>
