<svg width="609" height="790" viewBox="0 0 609 790" fill="none" xmlns="http://www.w3.org/2000/svg">
<path d="M562.345 0H267.853C242.188 0 221.383 20.8121 221.383 46.4851V702.198C221.383 727.871 242.188 748.683 267.853 748.683H562.345C588.01 748.683 608.815 727.871 608.815 702.198V46.4851C608.815 20.8121 588.01 0 562.345 0Z" fill="#12324C"/>
<path d="M560.843 6.57541H269.333C246.854 6.57541 228.631 24.8043 228.631 47.2907V697.342C228.631 719.829 246.854 738.058 269.333 738.058H560.843C583.323 738.058 601.546 719.829 601.546 697.342V47.2907C601.546 24.8043 583.323 6.57541 560.843 6.57541Z" fill="white"/>
<path d="M585.221 46.0061V695.296C585.221 710.515 572.88 722.86 557.666 722.86H272.511C257.297 722.86 244.955 710.515 244.955 695.296V46.0061C244.955 30.7869 257.297 18.4416 272.511 18.4416H320.069C322.703 18.4416 325.119 19.9222 326.294 22.2954L331.344 32.3763C333.651 37.0357 338.396 39.9532 343.555 39.9532H486.6C491.759 39.9532 496.504 37.0357 498.811 32.3763L503.86 22.2954C505.036 19.944 507.452 18.4416 510.085 18.4416H557.644C572.858 18.4416 585.199 30.7869 585.199 46.0061H585.221Z" fill="#F4F7FB"/>
<path d="M475.129 28.1306H359.923C357.245 28.1306 355.069 25.9533 355.069 23.2752C355.069 20.5972 357.245 18.4199 359.923 18.4199H475.129C477.807 18.4199 479.983 20.5972 479.983 23.2752C479.983 25.9533 477.807 28.1306 475.129 28.1306Z" fill="#DEE3FC"/>
<path d="M539.97 573.302H283.59C273.516 573.302 265.35 581.471 265.35 591.548V682.102C265.35 692.178 273.516 700.347 283.59 700.347H539.97C550.044 700.347 558.21 692.178 558.21 682.102V591.548C558.21 581.471 550.044 573.302 539.97 573.302Z" stroke="#12324C" stroke-width="2" stroke-linecap="round" stroke-linejoin="round"/>
<path d="M526.976 299.377H399.776C392.515 299.377 386.629 305.265 386.629 312.528V375.43C386.629 382.693 392.515 388.581 399.776 388.581H526.976C534.236 388.581 540.122 382.693 540.122 375.43V312.528C540.122 305.265 534.236 299.377 526.976 299.377Z" stroke="#FEDC56" stroke-linecap="round" stroke-linejoin="round"/>
<path d="M557.908 414.142V525.032C557.908 533.676 550.906 540.665 542.274 540.665H280.984C272.351 540.665 265.35 533.676 265.35 525.032V414.142C265.35 405.499 272.351 398.488 280.984 398.488H542.274C550.906 398.488 557.908 405.499 557.908 414.142Z" fill="#FEDC56"/>
<path d="M366.392 430.842H289.42C283.584 430.842 278.853 435.58 278.853 441.424V518.5C278.853 524.344 283.584 529.082 289.42 529.082H366.392C372.228 529.082 376.959 524.344 376.959 518.5V441.424C376.959 435.58 372.228 430.842 366.392 430.842Z" fill="white"/>
<path d="M457.649 443.275H389.853C388.005 443.275 386.504 441.772 386.504 439.921C386.504 438.071 388.005 436.568 389.853 436.568H457.649C459.497 436.568 460.997 438.071 460.997 439.921C460.997 441.772 459.497 443.275 457.649 443.275Z" fill="#F4F7FB"/>
<path d="M426.751 456.621H389.853C388.004 456.621 386.504 455.119 386.504 453.268C386.504 451.418 388.004 449.915 389.853 449.915H426.751C428.599 449.915 430.1 451.418 430.1 453.268C430.1 455.119 428.599 456.621 426.751 456.621Z" fill="#F4F7FB"/>
<path d="M540.165 456.621H440.319C438.471 456.621 436.971 455.119 436.971 453.268C436.971 451.418 438.471 449.915 440.319 449.915H540.165C542.013 449.915 543.513 451.418 543.513 453.268C543.513 455.119 542.013 456.621 540.165 456.621Z" fill="#F4F7FB"/>
<path d="M446.929 469.968H389.831C387.983 469.968 386.482 468.466 386.482 466.615C386.482 464.764 387.983 463.262 389.831 463.262H446.929C448.777 463.262 450.278 464.764 450.278 466.615C450.278 468.466 448.777 469.968 446.929 469.968Z" fill="#F4F7FB"/>
<path d="M495.395 469.968H459.497C457.649 469.968 456.17 468.466 456.17 466.615C456.17 464.764 457.67 463.262 459.497 463.262H495.395C497.243 463.262 498.722 464.764 498.722 466.615C498.722 468.466 497.222 469.968 495.395 469.968Z" fill="#F4F7FB"/>
<path d="M540.165 469.968H507.115C505.267 469.968 503.766 468.466 503.766 466.615C503.766 464.764 505.267 463.262 507.115 463.262H540.165C542.013 463.262 543.513 464.764 543.513 466.615C543.513 468.466 542.013 469.968 540.165 469.968Z" fill="#F4F7FB"/>
<path d="M540.165 483.315H389.831C387.983 483.315 386.482 481.813 386.482 479.962C386.482 478.111 387.983 476.609 389.831 476.609H540.165C542.013 476.609 543.513 478.111 543.513 479.962C543.513 481.813 542.013 483.315 540.165 483.315Z" fill="#F4F7FB"/>
<path d="M472.586 496.662H389.853C388.004 496.662 386.504 495.159 386.504 493.309C386.504 491.458 388.004 489.956 389.853 489.956H472.586C474.435 489.956 475.935 491.458 475.935 493.309C475.935 495.159 474.435 496.662 472.586 496.662Z" fill="#F4F7FB"/>
<path d="M540.165 496.662H485.915C484.067 496.662 482.567 495.159 482.567 493.309C482.567 491.458 484.067 489.956 485.915 489.956H540.165C542.013 489.956 543.513 491.458 543.513 493.309C543.513 495.159 542.013 496.662 540.165 496.662Z" fill="#F4F7FB"/>
<path d="M438.449 510.008H389.831C387.983 510.008 386.482 508.506 386.482 506.655C386.482 504.805 387.983 503.302 389.831 503.302H438.449C440.297 503.302 441.798 504.805 441.798 506.655C441.798 508.506 440.297 510.008 438.449 510.008Z" fill="#F4F7FB"/>
<path d="M500.222 510.008H451.604C449.756 510.008 448.255 508.506 448.255 506.655C448.255 504.805 449.756 503.302 451.604 503.302H500.222C502.07 503.302 503.571 504.805 503.571 506.655C503.571 508.506 502.07 510.008 500.222 510.008Z" fill="#F4F7FB"/>
<path d="M540.165 510.008H511.964C510.115 510.008 508.615 508.506 508.615 506.655C508.615 504.805 510.115 503.302 511.964 503.302H540.165C542.013 503.302 543.513 504.805 543.513 506.655C543.513 508.506 542.013 510.008 540.165 510.008Z" fill="#F4F7FB"/>
<path d="M457.649 523.355H389.853C388.004 523.355 386.504 521.853 386.504 520.002C386.504 518.152 388.004 516.649 389.853 516.649H457.649C459.497 516.649 460.997 518.152 460.997 520.002C460.997 521.853 459.497 523.355 457.649 523.355Z" fill="#F4F7FB"/>
<path d="M540.165 443.275H472.369C470.521 443.275 469.02 441.772 469.02 439.921C469.02 438.071 470.521 436.568 472.369 436.568H540.165C542.013 436.568 543.513 438.071 543.513 439.921C543.513 441.772 542.013 443.275 540.165 443.275Z" fill="#F4F7FB"/>
<path d="M557.908 414.142V418.802H265.35V414.142C265.35 405.499 272.351 398.488 280.984 398.488H542.274C550.906 398.488 557.908 405.499 557.908 414.142Z" fill="#FEDC56"/>
<path d="M502.766 409.004C502.766 411.007 501.136 412.64 499.135 412.64C497.135 412.64 495.504 411.007 495.504 409.004C495.504 407.001 497.135 405.368 499.135 405.368C501.136 405.368 502.766 407.001 502.766 409.004Z" fill="#FEDC56"/>
<path d="M521.292 409.004C521.292 411.007 519.661 412.64 517.661 412.64C515.66 412.64 514.029 411.007 514.029 409.004C514.029 407.001 515.66 405.368 517.661 405.368C519.661 405.368 521.292 407.001 521.292 409.004Z" fill="#FEDC56"/>
<path d="M539.839 409.004C539.839 411.007 538.208 412.64 536.208 412.64C534.207 412.64 532.577 411.007 532.577 409.004C532.577 407.001 534.207 405.368 536.208 405.368C538.208 405.368 539.839 407.001 539.839 409.004Z" fill="#FEDC56"/>
<path d="M356.005 299.464H298.042C289.447 299.464 282.48 306.434 282.48 315.032V373.013C282.48 381.611 289.447 388.581 298.042 388.581H356.005C364.6 388.581 371.567 381.611 371.567 373.013V315.032C371.567 306.434 364.6 299.464 356.005 299.464Z" stroke="#FEDC56" stroke-width="0.9" stroke-miterlimit="10"/>
<path d="M313.126 331.144L300.306 343.968L313.235 356.923" stroke="#FEDC56" stroke-width="1.67" stroke-linecap="round" stroke-linejoin="round"/>
<path d="M340.921 331.144L353.763 343.968L340.834 356.923" stroke="#FEDC56" stroke-width="1.67" stroke-linecap="round" stroke-linejoin="round"/>
<path d="M333.042 331.144L321.027 356.923" stroke="#FEDC56" stroke-width="1.67" stroke-linecap="round" stroke-linejoin="round"/>
<path d="M540.405 64.1429H283.155C273.321 64.1429 265.35 72.1168 265.35 81.9531V263.256C265.35 273.092 273.321 281.066 283.155 281.066H540.405C550.238 281.066 558.21 273.092 558.21 263.256V81.9531C558.21 72.1168 550.238 64.1429 540.405 64.1429Z" fill="#12324C"/>
<path d="M498.898 163.885C522.339 163.885 541.341 144.876 541.341 121.427C541.341 97.979 522.339 78.9703 498.898 78.9703C475.457 78.9703 456.455 97.979 456.455 121.427C456.455 144.876 475.457 163.885 498.898 163.885Z" fill="#F0F4FF"/>
<path d="M437.496 281.066H283.155C273.338 281.066 265.35 273.097 265.35 263.256V234.712L332.89 117.682C336.416 111.564 345.253 111.564 348.779 117.682L399.776 206.037L437.649 271.66C439.477 274.796 439.194 278.367 437.496 281.066Z" fill="white"/>
<path d="M504.056 281.066H356.462L399.776 206.037L423.109 165.605C426.287 160.096 434.231 160.096 437.409 165.605L504.056 281.066Z" fill="#F0F4FF"/>
<path d="M247.632 517.063L262.477 501.844C262.477 501.844 262.999 495.05 263.804 493.635C264.61 492.198 266.699 486.907 267.744 486.32C268.789 485.732 270.857 486.32 270.857 486.32C270.857 486.32 272.924 485.623 273.838 485.623C274.753 485.623 276.494 486.472 276.494 486.472C276.494 486.472 278.714 486.32 279.628 486.32C280.542 486.32 280.847 486.581 280.847 486.581C280.847 486.581 284.417 482.466 286.158 481.072C287.899 479.679 290.533 477.131 291.316 477.153C292.056 477.153 292.383 478.459 291.839 479.853C291.295 481.246 288.944 483.467 288.944 483.467L282.197 493.722C282.197 493.722 283.35 493.265 283.96 492.873C284.569 492.481 288.705 488.627 288.944 488.475C289.183 488.323 291.034 487.082 292.122 488.323C293.21 489.564 285.048 499.318 283.742 500.646C282.436 501.974 274.948 505.763 274.948 505.763C274.948 505.763 267.026 520.002 266.264 520.917C265.502 521.831 247.632 517.063 247.632 517.063Z" fill="#E49191"/>
<path d="M261.584 446.845C261.584 446.845 253.291 494.854 245.499 495.965C245.499 495.965 214.374 497.228 207.431 459.43C201.423 426.662 225.54 419.673 236.837 422.177C248.111 424.68 264.022 426.313 261.606 446.823L261.584 446.845Z" fill="#E49191"/>
<path d="M234.072 488.301C234.072 488.301 229.719 494.18 228.174 508.419C228.174 508.419 215.201 510.27 203.252 504.108C203.252 504.108 209.694 484.012 210.478 462.195" fill="#E49191"/>
<path d="M225.301 414.164C208.28 417.931 209.651 428.534 209.651 428.534C201.685 430.516 199.965 433.803 200.03 448.5C200.096 463.218 205.407 480.876 208.345 482.313C211.283 483.75 227.913 483.816 229.306 483.315C230.699 482.814 236.51 469.315 235.161 466.942C233.811 464.568 235.226 455.228 239.1 454.879C242.975 454.531 242.213 460.54 242.213 460.54L245.391 459.844L247.85 453.813C270.334 455.141 276.146 429.514 276.146 429.514C270.748 425.987 242.3 410.419 225.279 414.164H225.301Z" fill="#002C54"/>
<path d="M36.4163 739.19L53.6113 741.672L47.9087 761.769L29.2771 757.066C29.2771 757.066 21.7026 746.789 33.1514 739.19C33.6956 738.82 35.5021 738.994 36.4163 739.19Z" fill="#E5918F"/>
<path d="M164.835 687.588L139.478 610.795C139.478 610.795 131.794 608.052 127.855 610.795C127.855 610.795 101.431 625.013 104.261 665.51C106.394 696.058 112.836 729.174 115.448 742.456L47.7999 739.952C47.7999 739.952 39.4636 749.881 44.8616 762.792C44.8616 762.792 129.879 785.653 141.85 787.765C151.58 789.485 162.245 790.814 167.382 786.394C176.436 778.621 164.857 687.566 164.857 687.566L164.835 687.588Z" fill="#12324C"/>
<path d="M116.537 739.19L133.732 741.672L128.029 761.769L109.397 757.066C109.397 757.066 101.823 746.789 113.272 739.19C113.816 738.82 115.622 738.994 116.537 739.19Z" fill="#E5918F"/>
<path d="M110.29 749.728C109.898 753.691 113.359 757.24 112.728 758.241C112.097 759.221 100.539 778.643 100.539 778.643C100.539 778.643 109.267 782.453 107.852 787.94H85.7381C85.7381 787.94 79.9701 782.736 80.1007 775.268C80.1007 775.268 81.6025 766.667 85.5422 759.069C89.4818 751.47 98.4493 734.291 98.4493 734.291C98.4493 734.291 101.17 733.181 105.828 734.422C111.269 735.881 116.515 739.212 116.515 739.212C116.515 739.212 111.226 739.974 110.268 749.75L110.29 749.728Z" fill="#12324C"/>
<path d="M287.399 770.282C281.936 749.902 230.59 662.92 213.199 639.427C177.503 623.924 139.478 610.773 139.478 610.773C123.741 614.54 115.993 646.241 124.917 667.383C131.033 681.884 169.863 718.375 193.653 739.865L127.659 739.778C127.659 739.778 119.889 751.405 126.941 762.443C126.941 762.443 236.684 787.395 246.305 788.81C255.925 790.226 277.539 788.81 277.539 788.81C277.539 788.81 291.992 787.417 287.399 770.26V770.282Z" fill="#194569"/>
<path d="M30.1915 749.728C29.7997 753.691 33.2605 757.24 32.6293 758.241C31.9981 759.221 20.4404 778.643 20.4404 778.643C20.4404 778.643 29.1685 782.453 27.7537 787.94H5.63962C5.63962 787.94 -0.12833 782.736 0.00226476 775.268C0.00226476 775.268 1.50411 766.667 5.44373 759.069C9.38335 751.47 18.3509 734.291 18.3509 734.291C18.3509 734.291 21.0716 733.181 25.7295 734.422C31.171 735.881 36.4165 739.212 36.4165 739.212C36.4165 739.212 31.1275 739.974 30.1698 749.75L30.1915 749.728Z" fill="#12324C"/>
<path d="M370.022 502.279L334.631 564.55L309.273 539.271L288.291 570.515L294.386 573.433L292.187 575.262C292.187 575.262 341.095 599.081 346.972 593.834C352.827 588.587 380.143 509.355 380.143 509.355L370.022 502.279Z" fill="#E49191"/>
<path d="M313.801 543.256C313.801 543.256 307.119 571.452 293.755 584.82L259.56 571.8C259.56 571.8 243.693 598.494 228.174 618.96C222.21 626.864 220.229 637.99 213.221 639.448C212.785 639.296 212.372 639.165 211.937 639.056C192.935 633.352 164.901 639.405 141.763 630.804C116.21 621.29 121.173 615.934 121.173 615.934C121.173 615.934 136.67 587.999 145.464 558.41C149.381 545.324 152.102 533.197 153.909 523.725C157.152 506.96 170.581 493.853 187.515 491.567C187.711 491.545 187.885 491.501 188.081 491.48C207.453 489.019 258.167 495.007 268.027 499.231C277.887 503.455 313.801 543.256 313.801 543.256Z" fill="#0D2437"/>
<path opacity="0.6" d="M259.56 571.8C259.56 571.8 243.693 598.494 228.174 618.96C222.21 626.864 220.229 637.99 213.22 639.448C216.289 638.36 221.383 622.204 223.189 618.568C225.018 614.954 227.912 611.318 234.181 598.624C240.428 585.909 248.917 567.271 248.917 567.271L259.56 571.8Z" fill="#0D2437"/>
<path d="M193.653 739.865C193.653 739.865 194.197 739.734 195.133 739.625C196.091 739.517 197.44 739.321 199.073 739.255C202.338 739.081 206.713 739.212 211.044 739.8C213.199 740.105 215.354 740.496 217.356 740.997C219.359 741.476 221.187 742.021 222.732 742.587C224.278 743.109 225.518 743.697 226.411 744.089C227.281 744.481 227.76 744.742 227.76 744.742C227.76 744.742 227.216 744.677 226.28 744.524C225.344 744.328 223.995 744.154 222.406 743.871C219.206 743.327 214.984 742.652 210.739 742.086C208.628 741.759 206.495 741.52 204.492 741.258C202.49 740.997 200.618 740.779 199.029 740.562C195.808 740.126 193.653 739.843 193.653 739.843V739.865Z" fill="black"/>
<path d="M396.467 479.374C395.901 479.309 392.267 482.226 390.525 483.663L392.549 479.788C392.549 479.788 395.227 477.218 396.184 475.803C397.142 474.388 396.641 472.973 395.88 472.886C395.357 472.842 392.158 475.368 390.308 476.87L390.721 476.086C390.721 476.086 393.398 473.517 394.356 472.102C395.314 470.687 394.813 469.271 394.051 469.206C393.29 469.141 387.151 474.279 387.151 474.279L384.17 478.285L386.433 473.909C386.433 473.909 387.63 472.45 388.414 470.883C389.198 469.293 388.632 468.814 388.196 468.292C387.761 467.769 383.625 470.839 382.559 472.08C381.514 473.321 378.162 478.307 377.901 479.004L374.44 486.145C374.223 484.077 373.874 480.528 373.635 478.264C373.287 475.019 370.327 474.236 370.239 475.825C370.131 477.414 368.498 485.187 368.868 489.411C369.238 493.635 369.956 496.4 370.218 498.774C370.479 501.147 368.019 505.893 368.019 505.893C368.019 505.893 377.879 512.012 379.49 510.183C381.122 508.354 384.583 504.282 386.259 501.539C388.566 497.772 390.112 492.83 390.112 492.83L393.181 486.254C393.181 486.254 395.858 483.685 396.816 482.27C397.773 480.855 397.273 479.439 396.511 479.374H396.467Z" fill="#E49191"/>
</svg>
