<svg width="44" height="43" viewBox="0 0 44 43" fill="none" xmlns="http://www.w3.org/2000/svg">
<path d="M44 24.8823V18.1029H38.897C38.4454 15.9706 37.5874 13.9706 36.3982 12.2206L40.011 8.69117L35.1037 3.89706L31.4909 7.42647C29.6846 6.26471 27.6524 5.41176 25.4697 4.98529V0H18.5303V4.98529C16.3476 5.42647 14.3004 6.26471 12.5091 7.42647L8.89635 3.89706L3.98904 8.69117L7.60178 12.2206C6.4126 13.9853 5.53951 15.9706 5.10298 18.1029H0V24.8823H5.10298C5.55457 27.0147 6.4126 29.0147 7.60178 30.7794L3.98904 34.3088L8.89635 39.1029L12.5091 35.5735C14.3154 36.7353 16.3476 37.5882 18.5303 38.0147V43H25.4697V38.0147C27.6524 37.5735 29.6996 36.7353 31.4909 35.5735L35.1037 39.1029L40.011 34.3088L36.3982 30.7794C37.5874 29.0147 38.4605 27.0294 38.897 24.8823H44ZM21.9925 30.2059C17.0701 30.2059 13.066 26.2941 13.066 21.4853C13.066 16.6765 17.0701 12.7647 21.9925 12.7647C26.9148 12.7647 30.9189 16.6765 30.9189 21.4853C30.9189 26.2941 26.9148 30.2059 21.9925 30.2059Z" fill="#12324C"/>
</svg>
