<svg width="44" height="44" viewBox="0 0 44 44" fill="none" xmlns="http://www.w3.org/2000/svg">
<path d="M20.5786 41.7013C31.1859 41.7013 39.7848 33.2186 39.7848 22.7548C39.7848 12.2909 31.1859 3.80829 20.5786 3.80829C9.97123 3.80829 1.37228 12.2909 1.37228 22.7548C1.37228 33.2186 9.97123 41.7013 20.5786 41.7013Z" fill="white"/>
<path d="M20.5786 43.055C9.22799 43.055 0 33.9455 0 22.7547C0 11.564 9.23441 2.45447 20.5786 2.45447C31.9228 2.45447 41.1572 11.564 41.1572 22.7547C41.1572 33.9455 31.9228 43.055 20.5786 43.055ZM20.5786 5.16201C10.7414 5.16201 2.74467 13.0569 2.74467 22.7547C2.74467 32.4526 10.7478 40.3475 20.5786 40.3475C30.4094 40.3475 38.4126 32.4526 38.4126 22.7547C38.4126 13.0569 30.4094 5.16201 20.5786 5.16201Z" fill="#FF7F3E"/>
<path d="M20.5786 35.7232C13.3257 35.7232 7.43237 29.9032 7.43237 22.7548C7.43237 15.6064 13.3321 9.78641 20.5786 9.78641C27.825 9.78641 33.7248 15.6064 33.7248 22.7548C33.7248 29.9032 27.825 35.7232 20.5786 35.7232ZM20.5786 12.4876C14.8391 12.4876 10.177 17.093 10.177 22.7485C10.177 28.4039 14.8456 33.0093 20.5786 33.0093C26.3116 33.0093 30.9801 28.4039 30.9801 22.7485C30.9801 17.093 26.3116 12.4876 20.5786 12.4876Z" fill="#FF7F3E"/>
<path d="M24.4648 22.7547C24.4648 20.6355 22.7269 18.9211 20.5786 18.9211C18.4303 18.9211 16.6925 20.6355 16.6925 22.7547C16.6925 24.8739 18.4303 26.5883 20.5786 26.5883C22.7269 26.5883 24.4648 24.8739 24.4648 22.7547Z" fill="#FF7F3E"/>
<path d="M41.5228 2.80872L20.1233 23.8238L19.4756 23.1849L34.9304 8.03403L40.8751 2.16978L41.5228 2.80872Z" fill="#7EB4E0"/>
<path d="M34.9303 8.0341C35.2766 4.54213 39.881 3.05176e-05 39.881 3.05176e-05L40.8686 2.17619L34.9239 8.04043L34.9303 8.0341Z" fill="#194569"/>
<path d="M35.5781 8.66672C39.118 8.32512 43.7223 3.78302 43.7223 3.78302L41.5163 2.80881L35.5717 8.67305L35.5781 8.66672Z" fill="#194569"/>
</svg>
