<svg width="419" height="204" viewBox="0 0 419 204" fill="none" xmlns="http://www.w3.org/2000/svg">
<mask id="mask0_691_1780" style="mask-type:luminance" maskUnits="userSpaceOnUse" x="0" y="0" width="197" height="204">
<path d="M145.824 142.465C135.194 131.982 127.442 119.905 122.293 106.164C122.125 105.719 121.999 105.262 122.062 104.701C122.28 104.969 122.519 105.225 122.721 105.506C133.548 120.383 146.55 133.084 161.338 144.008C161.922 144.44 162.505 144.67 163.232 144.737C169.67 145.32 176.104 145.937 182.551 146.633C176.999 146.742 171.447 146.855 165.882 146.964C166.663 148.033 173.849 152.679 180.51 156.453C185.587 159.33 190.782 161.963 196.141 164.295C196.116 164.374 196.091 164.454 196.061 164.534C194.369 164.362 192.672 164.232 190.988 164.009C182.366 162.873 174.097 160.525 166.26 156.717C160.972 154.151 156.038 151.027 151.468 147.337C150.859 146.847 150.246 146.654 149.473 146.603C142.405 146.167 135.333 145.769 128.277 145.207C119.664 144.524 111.117 143.299 102.621 141.739C87.3213 138.93 72.3996 134.846 58.133 128.564C57.9104 128.468 57.6794 128.38 57.3728 128.258C57.2636 128.531 57.1335 128.774 57.0705 129.034C54.9454 138.276 53.1185 147.572 51.8754 156.973C51.2874 161.426 50.6826 165.888 50.3802 170.366C50.1241 174.149 50.1535 177.969 50.3005 181.764C50.5692 188.754 51.4428 195.689 52.8497 202.549C52.8833 202.705 52.8707 202.868 52.7027 203.111C52.5053 202.746 52.2911 202.394 52.1147 202.021C49.7125 197.06 48.1544 191.823 46.9826 186.46C45.3573 179.009 44.6056 171.457 44.4502 163.838C44.2276 153.136 45.1432 142.528 46.9197 131.982C47.3732 129.29 47.8688 126.602 48.3602 123.83C47.8898 123.57 47.432 123.31 46.9742 123.058C38.2262 118.224 30.1206 112.508 22.9769 105.493C13.393 96.0751 6.15264 85.1853 2.17547 72.2618C1.22213 69.1714 0.541768 66.0181 0.130192 62.8103C0.0629963 62.2861 0.0545968 61.7578 0 60.9233C0.51657 61.3636 0.844151 61.6278 1.15913 61.9087C7.74435 67.8254 14.6865 73.2849 22.1999 77.9939C30.423 83.1516 39.1039 87.3071 48.5156 89.8314C51.3588 90.5945 54.2314 91.2026 57.2678 91.6177C68.477 59.1412 84.3773 29.0087 102.55 0C102.638 0.037739 102.726 0.075478 102.81 0.113217C102.377 1.24119 101.949 2.37336 101.516 3.50134C97.6359 13.5567 94.6121 23.8468 92.9868 34.5186C92.3442 38.7286 92.0208 42.9679 92.2098 47.2283C92.3778 51.0483 92.9322 54.797 94.4189 58.3529C96.9051 64.3156 101.382 67.7834 107.728 68.8946C110.256 69.3349 112.78 69.4146 115.287 68.7982C118.66 67.9679 121.247 66.0013 123.225 63.1835C125.207 60.3572 126.333 57.1704 127.076 53.8368C128.365 48.0543 128.655 42.1796 128.47 36.2798C128.109 24.849 126.518 13.5777 123.901 2.44465C123.75 1.80728 123.59 1.1783 123.439 0.540926C123.431 0.50738 123.46 0.465448 123.502 0.314492C123.67 0.578665 123.83 0.771553 123.931 0.9896C128.672 11.1707 132.599 21.6286 134.82 32.6736C136.055 38.8292 136.698 45.0394 136.383 51.3208C135.845 62.1184 132.582 71.9179 125.535 80.296C121.104 85.5627 115.72 89.6469 109.693 92.9218C102.705 96.7167 95.2504 99.2577 87.5103 101.006C79.8625 102.734 72.1224 103.719 64.2772 103.845C64.1176 103.845 63.9539 103.87 63.6389 103.9C62.2152 108.697 60.8964 113.561 59.6575 118.492C60.1321 118.756 60.5143 118.983 60.909 119.184C70.4719 124.111 80.5177 127.818 90.7945 130.925C102.356 134.422 114.107 137.16 125.993 139.303C132.191 140.418 138.42 141.383 144.635 142.41C144.942 142.46 145.257 142.444 145.836 142.469L145.824 142.465ZM67.0659 92.297C79.6441 92.167 90.9667 88.6112 101.63 82.0991C101.239 81.9146 101.067 81.8265 100.886 81.751C97.7535 80.4553 95.2 78.3965 93.0371 75.8218C90.4249 72.7105 88.6148 69.163 87.3213 65.3388C85.255 59.2334 84.4319 52.952 84.7426 46.5196C84.7594 46.1841 84.7426 45.8445 84.7426 45.509C84.4109 45.8487 84.2387 46.2093 84.0875 46.5783C81.534 52.9017 78.9764 59.2209 76.4355 65.5526C74.9152 69.3433 73.3235 73.1088 71.967 76.954C70.4719 81.185 69.2035 85.4998 67.8386 89.7769C67.595 90.5484 67.3641 91.3242 67.0617 92.297H67.0659ZM53.5931 103.086C50.3928 102.361 47.2598 101.765 44.1982 100.918C41.1366 100.071 38.1464 98.9684 34.9714 97.9285C39.1711 104.252 44.6392 109.02 50.8002 113.238C51.7578 109.762 52.6649 106.462 53.5931 103.086Z" fill="white"/>
</mask>
<g mask="url(#mask0_691_1780)">
<path d="M34.9672 111.64L35.7483 113.238H34.9672V111.64Z" fill="#9E840E"/>
<path d="M34.9672 109.787L36.6555 113.238H35.7483L34.9672 111.64V109.787Z" fill="#9D840F"/>
<path d="M34.9672 107.934L37.5584 113.238H36.6555L34.9672 109.787V107.934Z" fill="#9C830F"/>
<path d="M34.9672 106.08L38.4656 113.238H37.5584L34.9672 107.934V106.08Z" fill="#9C8310"/>
<path d="M34.9672 104.227L39.3685 113.238H38.4656L34.9672 106.08V104.227Z" fill="#9B8310"/>
<path d="M34.9672 102.373L40.2757 113.238H39.3685L34.9672 104.227V102.373Z" fill="#9A8211"/>
<path d="M34.9672 100.52L41.1828 113.238H40.2757L34.9672 102.373V100.52Z" fill="#998211"/>
<path d="M34.9672 98.6665L42.0857 113.238H41.1828L34.9672 100.52V98.6665Z" fill="#988112"/>
<path d="M35.5089 97.9285L42.9929 113.238H42.0857L34.9672 98.6665V97.9285H35.5089Z" fill="#988112"/>
<path d="M36.4161 97.9285L43.8958 113.238H42.9929L35.5089 97.9285H36.4161Z" fill="#978113"/>
<path d="M37.3233 97.9285L44.803 113.238H43.8959L36.4161 97.9285H37.3233Z" fill="#968013"/>
<path d="M38.2262 97.9285L45.7102 113.238H44.803L37.3232 97.9285H38.2262Z" fill="#958014"/>
<path d="M39.1333 97.9285L46.6131 113.238H45.7102L38.2262 97.9285H39.1333Z" fill="#947F15"/>
<path d="M40.0362 97.9285L47.5202 113.238H46.6131L39.1333 97.9285H40.0362Z" fill="#937F15"/>
<path d="M40.9434 97.9285L48.4274 113.238H47.5202L40.0363 97.9285H40.9434Z" fill="#937F16"/>
<path d="M41.8506 97.9285L49.3304 113.238H48.4274L40.9435 97.9285H41.8506Z" fill="#927E16"/>
<path d="M42.7535 97.9285L50.2375 113.238H49.3303L41.8506 97.9285H42.7535Z" fill="#917E17"/>
<path d="M43.6607 97.9285L51.1404 113.238H50.2375L42.7535 97.9285H43.6607Z" fill="#907D18"/>
<path d="M44.5678 97.9285L52.0476 113.238H51.1404L43.6606 97.9285H44.5678Z" fill="#8F7D18"/>
<path d="M45.4708 97.9285L52.9086 113.142L52.7112 113.238H52.0476L44.5679 97.9285H45.4708Z" fill="#8E7C19"/>
<path d="M46.378 97.9285L53.5932 112.689V112.81L52.9086 113.142L45.4708 97.9285H46.378Z" fill="#8D7C1A"/>
<path d="M47.2809 97.9285L53.5931 110.835V112.689L46.3779 97.9285H47.2809Z" fill="#8C7B1A"/>
<path d="M48.188 97.9285L53.5931 108.982V110.835L47.2809 97.9285H48.188Z" fill="#8B7B1B"/>
<path d="M49.0951 97.9285L53.5931 107.128V108.982L48.188 97.9285H49.0951Z" fill="#8A7A1C"/>
<path d="M49.9982 97.9285L53.5932 105.275V107.128L49.0952 97.9285H49.9982Z" fill="#897A1C"/>
<path d="M50.9053 97.9285L53.5932 103.426V105.275L49.9982 97.9285H50.9053Z" fill="#887A1D"/>
<path d="M51.8124 97.9285L53.5931 101.572V103.426L50.9053 97.9285H51.8124Z" fill="#87791E"/>
<path d="M52.7153 97.9285L53.5931 99.719V101.572L51.8124 97.9285H52.7153Z" fill="#86791F"/>
<path d="M53.5931 99.719L52.7153 97.9285H53.5931V99.719Z" fill="#85781F"/>
<path d="M67.0659 92.0831L67.1713 92.2977H67.0659V92.0831Z" fill="#6F6E2E"/>
<path d="M67.0659 90.2297L68.0739 92.297H67.1709L67.0659 92.0831V90.2297Z" fill="#6E6D2F"/>
<path d="M67.0659 88.3763L68.981 92.297H68.0739L67.0659 90.2297V88.3763Z" fill="#6D6D30"/>
<path d="M67.0659 86.5229L69.8882 92.297H68.981L67.0659 88.3763V86.5229Z" fill="#6B6C31"/>
<path d="M67.0659 84.6695L70.7911 92.297H69.8882L67.0659 86.5229V84.6695Z" fill="#6A6B32"/>
<path d="M67.0659 82.8203L71.6982 92.297H70.7911L67.0659 84.6695V82.8203Z" fill="#696B32"/>
<path d="M67.0659 80.9669L72.6012 92.297H71.6982L67.0659 82.8203V80.9669Z" fill="#676A33"/>
<path d="M67.0659 79.1135L73.5083 92.297H72.6012L67.0659 80.9669V79.1135Z" fill="#666934"/>
<path d="M67.0659 77.2601L74.4155 92.297H73.5083L67.0659 79.1135V77.2601Z" fill="#656935"/>
<path d="M67.0659 75.4067L75.3184 92.297H74.4155L67.0659 77.2601V75.4067Z" fill="#636836"/>
<path d="M67.0659 73.5533L76.2256 92.297H75.3184L67.0659 75.4067V73.5533Z" fill="#626737"/>
<path d="M67.0659 71.6999L77.1327 92.297H76.2256L67.0659 73.5533V71.6999Z" fill="#606738"/>
<path d="M67.0659 69.8465L78.0357 92.297H77.1327L67.0659 71.6999V69.8465Z" fill="#5F6639"/>
<path d="M67.0659 67.9931L78.9428 92.297H78.0357L67.0659 69.8465V67.9931Z" fill="#5D653A"/>
<path d="M67.0659 66.1397L79.8458 92.297H78.9428L67.0659 67.9931V66.1397Z" fill="#5C653B"/>
<path d="M67.0659 64.2905L80.7529 92.297H79.8458L67.0659 66.1397V64.2905Z" fill="#5A643C"/>
<path d="M67.0659 62.4371L81.6601 92.297H80.7529L67.0659 64.2905V62.4371Z" fill="#59633D"/>
<path d="M67.0659 60.5837L82.563 92.297H81.6601L67.0659 62.4371V60.5837Z" fill="#57633E"/>
<path d="M67.0659 58.7303L83.4702 92.297H82.563L67.0659 60.5837V58.7303Z" fill="#56623F"/>
<path d="M67.0659 56.8769L84.3731 92.297H83.4702L67.0659 58.7303V56.8769Z" fill="#546140"/>
<path d="M67.0659 55.0235L85.2803 92.297H84.3731L67.0659 56.8769V55.0235Z" fill="#536041"/>
<path d="M67.0659 53.191L67.0743 53.1868L86.0194 91.9531L85.3097 92.297H85.2803L67.0659 55.0235V53.191Z" fill="#516043"/>
<path d="M67.8038 52.833L67.0715 53.1897L86.0172 91.9565L86.7494 91.5998L67.8038 52.833Z" fill="#505F44"/>
<path d="M68.5388 52.4718L67.8065 52.8285L86.7522 91.5953L87.4844 91.2386L68.5388 52.4718Z" fill="#4E5E45"/>
<path d="M69.27 52.1167L68.5377 52.4734L87.4834 91.2402L88.2156 90.8834L69.27 52.1167Z" fill="#4D5D46"/>
<path d="M70.001 51.7615L69.2688 52.1183L88.2145 90.885L88.9467 90.5283L70.001 51.7615Z" fill="#4B5D47"/>
<path d="M70.7322 51.4064L70 51.7631L88.9457 90.5299L89.6779 90.1731L70.7322 51.4064Z" fill="#495C48"/>
<path d="M71.4634 51.047L70.7312 51.4038L89.6769 90.1705L90.4091 89.8138L71.4634 51.047Z" fill="#485B49"/>
<path d="M72.1946 50.6919L71.4624 51.0486L90.4081 89.8154L91.1403 89.4587L72.1946 50.6919Z" fill="#465A4A"/>
<path d="M72.9258 50.3367L72.1936 50.6935L91.1393 89.4603L91.8715 89.1035L72.9258 50.3367Z" fill="#445A4B"/>
<path d="M73.6565 49.9798L72.9243 50.3365L91.87 89.1033L92.6022 88.7465L73.6565 49.9798Z" fill="#43594C"/>
<path d="M74.3877 49.6246L73.6555 49.9813L92.6012 88.7481L93.3334 88.3914L74.3877 49.6246Z" fill="#41584E"/>
<path d="M75.119 49.2653L74.3867 49.622L93.3324 88.3888L94.0646 88.0321L75.119 49.2653Z" fill="#3F574F"/>
<path d="M75.8502 48.9101L75.1179 49.2669L94.0636 88.0336L94.7958 87.6769L75.8502 48.9101Z" fill="#3E5650"/>
<path d="M76.5813 48.555L75.8491 48.9117L94.7948 87.6785L95.527 87.3218L76.5813 48.555Z" fill="#3C5651"/>
<path d="M77.3126 48.1998L76.5803 48.5566L95.526 87.3234L96.2582 86.9666L77.3126 48.1998Z" fill="#3A5552"/>
<path d="M78.0474 47.8387L77.3152 48.1954L96.2609 86.9622L96.9931 86.6054L78.0474 47.8387Z" fill="#385453"/>
<path d="M78.7786 47.4835L78.0464 47.8403L96.9921 86.607L97.7243 86.2503L78.7786 47.4835Z" fill="#375355"/>
<path d="M79.5098 47.1284L78.7776 47.4851L97.7233 86.2519L98.4555 85.8952L79.5098 47.1284Z" fill="#355256"/>
<path d="M80.241 46.7732L79.5088 47.13L98.4545 85.8968L99.1867 85.54L80.241 46.7732Z" fill="#335157"/>
<path d="M80.9722 46.4139L80.24 46.7706L99.1857 85.5374L99.9179 85.1807L80.9722 46.4139Z" fill="#315158"/>
<path d="M81.6992 46.0588L80.9669 46.4155L99.9126 85.1823L100.645 84.8255L81.6992 46.0588Z" fill="#30505A"/>
<path d="M82.4304 45.7036L81.6981 46.0603L100.644 84.8271L101.376 84.4704L82.4304 45.7036Z" fill="#2E4F5B"/>
<path d="M82.4329 45.7019L82.8276 45.5132H83.2434L101.626 83.1306V84.3466L101.378 84.4682L82.4329 45.7019Z" fill="#2C4E5C"/>
<path d="M84.1506 45.5132L101.626 81.2772V83.1306L83.2434 45.5132H84.1506Z" fill="#2A4D5D"/>
<path d="M85.0577 45.5132L101.626 79.4238V81.2772L84.1505 45.5132H85.0577Z" fill="#284C5F"/>
<path d="M85.9606 45.5132L101.626 77.5704V79.4238L85.0576 45.5132H85.9606Z" fill="#264B60"/>
<path d="M86.8677 45.5132L101.626 75.717V77.5704L85.9606 45.5132H86.8677Z" fill="#254A61"/>
<path d="M87.7707 45.5132L101.626 73.8636V75.717L86.8678 45.5132H87.7707Z" fill="#234A62"/>
<path d="M88.6779 45.5132L101.626 72.0102V73.8636L87.7708 45.5132H88.6779Z" fill="#214964"/>
<path d="M89.585 45.5132L101.626 70.1568V72.0102L88.6779 45.5132H89.585Z" fill="#1F4865"/>
<path d="M90.4879 45.5132L101.626 68.3034V70.1568L89.585 45.5132H90.4879Z" fill="#1D4766"/>
<path d="M91.3951 45.5132L101.626 66.45V68.3034L90.4879 45.5132H91.3951Z" fill="#1B4668"/>
<path d="M92.2981 45.5132L101.626 64.6008V66.45L91.3951 45.5132H92.2981Z" fill="#194569"/>
<path d="M101.626 64.6008L92.2981 45.5132H101.626V64.6008Z" fill="#194569"/>
<path d="M-0.00415039 138.288L31.6788 203.115H-0.00415039V138.288Z" fill="#B18D01"/>
<path d="M-0.00415039 136.435L32.5817 203.115H31.6788L-0.00415039 138.288V136.435Z" fill="#B18D01"/>
<path d="M-0.00415039 134.581L33.4889 203.115H32.5817L-0.00415039 136.435V134.581Z" fill="#B18D01"/>
<path d="M-0.00415039 132.728L34.396 203.115H33.4889L-0.00415039 134.581V132.728Z" fill="#B18D01"/>
<path d="M-0.00415039 130.875L35.299 203.115H34.396L-0.00415039 132.728V130.875Z" fill="#B18D01"/>
<path d="M-0.00415039 129.021L36.2061 203.115H35.299L-0.00415039 130.875V129.021Z" fill="#B18D01"/>
<path d="M-0.00415039 127.168L37.1091 203.115H36.2061L-0.00415039 129.021V127.168Z" fill="#B18D01"/>
<path d="M-0.00415039 125.314L38.0162 203.115H37.1091L-0.00415039 127.168V125.314Z" fill="#B18D01"/>
<path d="M-0.00415039 123.461L38.9234 203.115H38.0162L-0.00415039 125.314V123.461Z" fill="#B18D01"/>
<path d="M-0.00415039 121.612L39.8263 203.115H38.9234L-0.00415039 123.461V121.612Z" fill="#B08D01"/>
<path d="M-0.00415039 119.758L40.7335 203.115H39.8263L-0.00415039 121.612V119.758Z" fill="#B08D01"/>
<path d="M-0.00415039 117.905L41.6406 203.115H40.7335L-0.00415039 119.758V117.905Z" fill="#B08D02"/>
<path d="M-0.00415039 116.052L42.5436 203.115H41.6406L-0.00415039 117.905V116.052Z" fill="#B08D02"/>
<path d="M-0.00415039 114.198L43.4507 203.115H42.5436L-0.00415039 116.052V114.198Z" fill="#B08C02"/>
<path d="M-0.00415039 112.345L44.3537 203.115H43.4507L-0.00415039 114.198V112.345Z" fill="#B08C02"/>
<path d="M-0.00415039 110.491L45.2608 203.115H44.3537L-0.00415039 112.345V110.491Z" fill="#AF8C02"/>
<path d="M-0.00415039 108.638L46.1679 203.115H45.2608L-0.00415039 110.491V108.638Z" fill="#AF8C02"/>
<path d="M-0.00415039 106.785L47.0709 203.115H46.1679L-0.00415039 108.638V106.785Z" fill="#AF8C02"/>
<path d="M-0.00415039 104.931L47.978 203.115H47.0709L-0.00415039 106.785V104.931Z" fill="#AF8C02"/>
<path d="M-0.00415039 103.082L48.881 203.115H47.978L-0.00415039 104.931V103.082Z" fill="#AF8C03"/>
<path d="M-0.00415039 101.229L49.7881 203.115H48.881L-0.00415039 103.082V101.229Z" fill="#AE8C03"/>
<path d="M-0.00415039 99.3752L50.6953 203.115H49.7881L-0.00415039 101.229V99.3752Z" fill="#AE8C03"/>
<path d="M-0.00415039 97.5217L51.5982 203.115H50.6953L-0.00415039 99.3751V97.5217Z" fill="#AE8B03"/>
<path d="M-0.00415039 95.6683L52.5054 203.115H51.5982L-0.00415039 97.5218V95.6683Z" fill="#AD8B03"/>
<path d="M-0.00415039 93.8149L53.4125 203.115H52.5054L-0.00415039 95.6683V93.8149Z" fill="#AD8B04"/>
<path d="M-0.00415039 91.9615L54.3155 203.115H53.4125L-0.00415039 93.8149V91.9615Z" fill="#AD8B04"/>
<path d="M-0.00415039 90.1081L55.2226 203.115H54.3155L-0.00415039 91.9615V90.1081Z" fill="#AC8B04"/>
<path d="M-0.00415039 88.2547L56.1256 203.115H55.2226L-0.00415039 90.1081V88.2547Z" fill="#AC8B04"/>
<path d="M-0.00415039 86.4013L57.0327 203.115H56.1256L-0.00415039 88.2547V86.4013Z" fill="#AC8A05"/>
<path d="M-0.00415039 84.5521L57.9399 203.115H57.0327L-0.00415039 86.4013V84.5521Z" fill="#AB8A05"/>
<path d="M-0.00415039 82.6987L58.8428 203.115H57.9399L-0.00415039 84.5521V82.6987Z" fill="#AB8A05"/>
<path d="M-0.00415039 80.8453L59.7499 203.115H58.8428L-0.00415039 82.6987V80.8453Z" fill="#AA8A06"/>
<path d="M-0.00415039 78.9919L60.6529 203.115H59.75L-0.00415039 80.8453V78.9919Z" fill="#AA8A06"/>
<path d="M-0.00415039 77.1385L61.56 203.115H60.6529L-0.00415039 78.9919V77.1385Z" fill="#AA8906"/>
<path d="M-0.00415039 75.2851L62.4672 203.115H61.56L-0.00415039 77.1385V75.2851Z" fill="#A98906"/>
<path d="M-0.00415039 73.4317L63.3701 203.115H62.4672L-0.00415039 75.2851V73.4317Z" fill="#A98907"/>
<path d="M-0.00415039 71.5783L64.2773 203.115H63.3701L-0.00415039 73.4317V71.5783Z" fill="#A88907"/>
<path d="M-0.00415039 69.7249L65.1844 203.115H64.2773L-0.00415039 71.5783V69.7249Z" fill="#A88907"/>
<path d="M-0.00415039 67.8715L66.0874 203.115H65.1844L-0.00415039 69.7249V67.8715Z" fill="#A78808"/>
<path d="M-0.00415039 66.0223L66.9945 203.115H66.0874L-0.00415039 67.8715V66.0223Z" fill="#A78808"/>
<path d="M-0.00415039 64.1689L67.8975 203.115H66.9945L-0.00415039 66.0223V64.1689Z" fill="#A68809"/>
<path d="M-0.00415039 62.3155L68.8046 203.115H67.8975L-0.00415039 64.1689V62.3155Z" fill="#A58809"/>
<path d="M-0.00415039 60.4621L69.7118 203.115H68.8046L-0.00415039 62.3155V60.4621Z" fill="#A58709"/>
<path d="M-0.00415039 58.6087L70.6147 203.115H69.7118L-0.00415039 60.4621V58.6087Z" fill="#A4870A"/>
<path d="M-0.00415039 56.7552L71.5219 203.115H70.6147L-0.00415039 58.6087V56.7552Z" fill="#A4870A"/>
<path d="M-0.00415039 54.9018L72.429 203.115H71.5219L-0.00415039 56.7553V54.9018Z" fill="#A3860A"/>
<path d="M-0.00415039 53.0484L73.332 203.115H72.429L-0.00415039 54.9018V53.0484Z" fill="#A3860B"/>
<path d="M-0.00415039 51.195L74.2391 203.115H73.3319L-0.00415039 53.0484V51.195Z" fill="#A2860B"/>
<path d="M-0.00415039 49.3416L75.142 203.115H74.2391L-0.00415039 51.195V49.3416Z" fill="#A1860C"/>
<path d="M-0.00415039 49.0271L0.604814 48.7336L76.0492 203.115H75.142L-0.00415039 49.3416V49.0271Z" fill="#A1850C"/>
<path d="M0.604858 48.7336L1.33562 48.3772L76.9564 203.115H76.0492L0.604858 48.7336Z" fill="#A0850D"/>
<path d="M1.33557 48.3772L2.06633 48.0208L77.8593 203.115H76.9563L1.33557 48.3772Z" fill="#9F850D"/>
<path d="M2.06628 48.0208L2.79704 47.6643L78.7664 203.115H77.8592L2.06628 48.0208Z" fill="#9F840E"/>
<path d="M2.79712 47.6643L3.52788 47.3079L79.6694 203.115H78.7665L2.79712 47.6643Z" fill="#9E840E"/>
<path d="M3.52783 47.3079L4.25859 46.9515L80.5765 203.115H79.6694L3.52783 47.3079Z" fill="#9D840F"/>
<path d="M4.25854 46.9515L4.9935 46.5951L81.4836 203.115H80.5765L4.25854 46.9515Z" fill="#9C830F"/>
<path d="M4.99353 46.5951L5.72429 46.2386L82.3866 203.115H81.4837L4.99353 46.5951Z" fill="#9C8310"/>
<path d="M5.72437 46.2387L6.45512 45.8822L83.2938 203.115H82.3867L5.72437 46.2387Z" fill="#9B8310"/>
<path d="M6.45508 45.8822L7.18584 45.5258L84.2009 203.115H83.2938L6.45508 45.8822Z" fill="#9A8211"/>
<path d="M7.18579 45.5258L7.91655 45.1694L85.1038 203.115H84.2009L7.18579 45.5258Z" fill="#998211"/>
<path d="M7.91663 45.1694L8.64738 44.813L86.011 203.115H85.1039L7.91663 45.1694Z" fill="#988112"/>
<path d="M8.64734 44.813L9.3781 44.4565L86.914 203.115H86.011L8.64734 44.813Z" fill="#988112"/>
<path d="M9.37805 44.4565L10.113 44.1001L87.8211 203.115H86.9139L9.37805 44.4565Z" fill="#978113"/>
<path d="M10.113 44.1001L10.8438 43.7437L88.7282 203.115H87.8211L10.113 44.1001Z" fill="#968013"/>
<path d="M10.8439 43.7437L11.5746 43.3873L89.6313 203.115H88.7283L10.8439 43.7437Z" fill="#958014"/>
<path d="M11.5746 43.3873L12.3053 43.0308L90.5384 203.115H89.6312L11.5746 43.3873Z" fill="#947F15"/>
<path d="M12.3053 43.0308L13.0361 42.6744L91.4455 203.115H90.5383L12.3053 43.0308Z" fill="#937F15"/>
<path d="M13.0361 42.6744L13.7669 42.318L92.3485 203.115H91.4455L13.0361 42.6744Z" fill="#937F16"/>
<path d="M13.7668 42.318L14.5018 41.9616L93.2556 203.115H92.3484L13.7668 42.318Z" fill="#927E16"/>
<path d="M14.5018 41.9616L15.2326 41.6051L94.1586 203.115H93.2556L14.5018 41.9616Z" fill="#917E17"/>
<path d="M15.2325 41.6051L15.9633 41.2487L95.0657 203.115H94.1585L15.2325 41.6051Z" fill="#907D18"/>
<path d="M15.9633 41.2487L16.694 40.8923L95.9728 203.115H95.0656L15.9633 41.2487Z" fill="#8F7D18"/>
<path d="M16.6941 40.8923L17.4248 40.5359L96.8758 203.115H95.9728L16.6941 40.8923Z" fill="#8E7C19"/>
<path d="M17.4248 40.5359L18.1556 40.1794L97.7829 203.115H96.8757L17.4248 40.5359Z" fill="#8D7C1A"/>
<path d="M18.1556 40.1794L18.8864 39.823L98.6859 203.115H97.783L18.1556 40.1794Z" fill="#8C7B1A"/>
<path d="M18.8864 39.823L19.6213 39.4708L99.593 203.115H98.6859L18.8864 39.823Z" fill="#8B7B1B"/>
<path d="M19.6213 39.4708L20.3521 39.1144L100.5 203.115H99.5931L19.6213 39.4708Z" fill="#8A7A1C"/>
<path d="M20.3521 39.1144L21.0828 38.7579L101.403 203.115H100.5L20.3521 39.1144Z" fill="#897A1C"/>
<path d="M21.0828 38.7579L21.8135 38.4015L102.31 203.115H101.403L21.0828 38.7579Z" fill="#887A1D"/>
<path d="M21.8136 38.4015L22.5444 38.0451L103.217 203.115H102.31L21.8136 38.4015Z" fill="#87791E"/>
<path d="M22.5443 38.0451L23.2751 37.6887L104.12 203.115H103.217L22.5443 38.0451Z" fill="#86791F"/>
<path d="M23.2751 37.6887L24.0101 37.3322L105.028 203.115H104.12L23.2751 37.6887Z" fill="#85781F"/>
<path d="M24.01 37.3322L24.7408 36.9758L105.93 203.115H105.027L24.01 37.3322Z" fill="#847820"/>
<path d="M24.7408 36.9758L25.4716 36.6194L106.838 203.115H105.93L24.7408 36.9758Z" fill="#837721"/>
<path d="M25.4716 36.6194L26.2023 36.263L107.745 203.115H106.838L25.4716 36.6194Z" fill="#817622"/>
<path d="M26.2023 36.263L26.933 35.9066L108.648 203.115H107.745L26.2023 36.263Z" fill="#807622"/>
<path d="M26.9331 35.9065L27.6639 35.5501L109.555 203.115H108.648L26.9331 35.9065Z" fill="#7F7523"/>
<path d="M27.6638 35.5501L28.3946 35.1937L110.462 203.115H109.555L27.6638 35.5501Z" fill="#7E7524"/>
<path d="M28.3945 35.1937L29.1295 34.8373L111.365 203.115H110.462L28.3945 35.1937Z" fill="#7D7425"/>
<path d="M29.1295 34.8373L29.8603 34.4809L112.272 203.115H111.365L29.1295 34.8373Z" fill="#7C7425"/>
<path d="M29.8604 34.4809L30.5911 34.1244L113.175 203.115H112.272L29.8604 34.4809Z" fill="#7B7326"/>
<path d="M30.5911 34.1244L31.3218 33.768L114.082 203.115H113.175L30.5911 34.1244Z" fill="#797327"/>
<path d="M31.3218 33.768L32.0525 33.4116L114.989 203.115H114.082L31.3218 33.768Z" fill="#787228"/>
<path d="M32.0526 33.4116L32.7834 33.0552L115.892 203.115H114.989L32.0526 33.4116Z" fill="#777129"/>
<path d="M32.7833 33.0552L33.5183 32.6987L116.799 203.115H115.892L32.7833 33.0552Z" fill="#76712A"/>
<path d="M33.5183 32.6987L34.2491 32.3423L117.702 203.115H116.799L33.5183 32.6987Z" fill="#74702A"/>
<path d="M34.249 32.3423L34.9798 31.9859L118.609 203.115H117.702L34.249 32.3423Z" fill="#73702B"/>
<path d="M34.9799 31.9859L35.7106 31.6295L119.374 202.83L118.786 203.115H118.61L34.9799 31.9859Z" fill="#726F2C"/>
<path d="M36.4435 31.2698L35.7113 31.6265L119.376 202.823L120.109 202.466L36.4435 31.2698Z" fill="#716F2D"/>
<path d="M37.1747 30.9146L36.4425 31.2714L120.108 202.468L120.84 202.111L37.1747 30.9146Z" fill="#6F6E2E"/>
<path d="M37.9059 30.5595L37.1737 30.9162L120.839 202.113L121.571 201.756L37.9059 30.5595Z" fill="#6E6D2F"/>
<path d="M38.6371 30.2043L37.9049 30.5611L121.57 201.757L122.302 201.401L38.6371 30.2043Z" fill="#6D6D30"/>
<path d="M39.3682 29.845L38.636 30.2018L122.301 201.398L123.033 201.041L39.3682 29.845Z" fill="#6B6C31"/>
<path d="M40.0991 29.488L39.3668 29.8448L123.032 201.041L123.764 200.684L40.0991 29.488Z" fill="#6A6B32"/>
<path d="M40.8303 29.1329L40.098 29.4896L123.763 200.686L124.495 200.329L40.8303 29.1329Z" fill="#696B32"/>
<path d="M41.5615 28.7777L40.8292 29.1345L124.494 200.331L125.227 199.974L41.5615 28.7777Z" fill="#676A33"/>
<path d="M42.2925 28.4226L41.5603 28.7793L125.225 199.976L125.958 199.619L42.2925 28.4226Z" fill="#666934"/>
<path d="M43.0237 28.0633L42.2915 28.42L125.957 199.616L126.689 199.26L43.0237 28.0633Z" fill="#656935"/>
<path d="M43.7549 27.7081L43.0227 28.0648L126.688 199.261L127.42 198.905L43.7549 27.7081Z" fill="#636836"/>
<path d="M44.4899 27.3511L43.7577 27.7079L127.423 198.904L128.155 198.548L44.4899 27.3511Z" fill="#626737"/>
<path d="M45.2211 26.996L44.4889 27.3527L128.154 198.549L128.886 198.192L45.2211 26.996Z" fill="#606738"/>
<path d="M45.9523 26.6366L45.2201 26.9934L128.885 198.19L129.618 197.833L45.9523 26.6366Z" fill="#5F6639"/>
<path d="M46.6835 26.2815L45.9513 26.6382L129.616 197.835L130.349 197.478L46.6835 26.2815Z" fill="#5D653A"/>
<path d="M47.4105 25.9264L46.6782 26.2831L130.343 197.479L131.076 197.123L47.4105 25.9264Z" fill="#5C653B"/>
<path d="M48.1417 25.5712L47.4094 25.928L131.075 197.124L131.807 196.768L48.1417 25.5712Z" fill="#5A643C"/>
<path d="M48.8766 25.21L48.1444 25.5668L131.81 196.763L132.542 196.406L48.8766 25.21Z" fill="#59633D"/>
<path d="M49.6078 24.8549L48.8756 25.2116L132.541 196.408L133.273 196.051L49.6078 24.8549Z" fill="#57633E"/>
<path d="M50.3409 24.5035L49.6086 24.8603L133.274 196.057L134.006 195.7L50.3409 24.5035Z" fill="#56623F"/>
<path d="M51.0721 24.1484L50.3398 24.5051L134.005 195.702L134.737 195.345L51.0721 24.1484Z" fill="#546140"/>
<path d="M51.8032 23.789L51.0709 24.1458L134.736 195.342L135.468 194.985L51.8032 23.789Z" fill="#536041"/>
<path d="M52.5344 23.4339L51.8021 23.7906L135.467 194.987L136.2 194.63L52.5344 23.4339Z" fill="#516043"/>
<path d="M53.2656 23.0788L52.5333 23.4355L136.199 194.632L136.931 194.275L53.2656 23.0788Z" fill="#505F44"/>
<path d="M54.0005 22.7218L53.2683 23.0785L136.934 194.275L137.666 193.918L54.0005 22.7218Z" fill="#4E5E45"/>
<path d="M54.7275 22.3666L53.9952 22.7234L137.66 193.92L138.393 193.563L54.7275 22.3666Z" fill="#4D5D46"/>
<path d="M55.4587 22.0073L54.7264 22.364L138.392 193.56L139.124 193.204L55.4587 22.0073Z" fill="#4B5D47"/>
<path d="M56.1899 21.6521L55.4576 22.0089L139.123 193.205L139.855 192.849L56.1899 21.6521Z" fill="#495C48"/>
<path d="M56.9211 21.297L56.1888 21.6537L139.854 192.85L140.586 192.493L56.9211 21.297Z" fill="#485B49"/>
<path d="M57.6523 20.9419L56.92 21.2986L140.585 192.495L141.317 192.138L57.6523 20.9419Z" fill="#465A4A"/>
<path d="M58.3873 20.5807L57.655 20.9374L141.32 192.134L142.052 191.777L58.3873 20.5807Z" fill="#445A4B"/>
<path d="M59.1183 20.2255L58.3861 20.5823L142.051 191.779L142.784 191.422L59.1183 20.2255Z" fill="#43594C"/>
<path d="M59.8495 19.8704L59.1173 20.2271L142.783 191.424L143.515 191.067L59.8495 19.8704Z" fill="#41584E"/>
<path d="M60.5807 19.5152L59.8485 19.872L143.514 191.068L144.246 190.712L60.5807 19.5152Z" fill="#3F574F"/>
<path d="M61.3119 19.1559L60.5797 19.5126L144.245 190.709L144.977 190.352L61.3119 19.1559Z" fill="#3E5650"/>
<path d="M62.039 18.8008L61.3068 19.1575L144.972 190.354L145.704 189.997L62.039 18.8008Z" fill="#3C5651"/>
<path d="M62.7701 18.4456L62.0378 18.8024L145.703 189.999L146.435 189.642L62.7701 18.4456Z" fill="#3A5552"/>
<path d="M63.5051 18.0886L62.7728 18.4454L146.438 189.642L147.17 189.285L63.5051 18.0886Z" fill="#385453"/>
<path d="M64.2363 17.7293L63.504 18.086L147.169 189.282L147.901 188.926L64.2363 17.7293Z" fill="#375355"/>
<path d="M64.9675 17.3742L64.2352 17.7309L147.9 188.927L148.633 188.571L64.9675 17.3742Z" fill="#355256"/>
<path d="M65.6987 17.019L64.9664 17.3757L148.632 188.572L149.364 188.215L65.6987 17.019Z" fill="#335157"/>
<path d="M66.4299 16.6639L65.6976 17.0206L149.363 188.217L150.095 187.86L66.4299 16.6639Z" fill="#315158"/>
<path d="M67.1611 16.3087L66.4288 16.6655L150.094 187.862L150.826 187.505L67.1611 16.3087Z" fill="#30505A"/>
<path d="M67.8959 15.9475L67.1637 16.3043L150.829 187.501L151.561 187.144L67.8959 15.9475Z" fill="#2E4F5B"/>
<path d="M68.6271 15.5924L67.8949 15.9491L151.56 187.146L152.292 186.789L68.6271 15.5924Z" fill="#2C4E5C"/>
<path d="M69.3583 15.2373L68.6261 15.594L152.291 186.79L153.024 186.434L69.3583 15.2373Z" fill="#2A4D5D"/>
<path d="M70.0854 14.8821L69.3531 15.2388L153.018 186.435L153.751 186.079L70.0854 14.8821Z" fill="#284C5F"/>
<path d="M70.8165 14.5228L70.0842 14.8795L153.749 186.076L154.482 185.719L70.8165 14.5228Z" fill="#264B60"/>
<path d="M71.5477 14.1676L70.8154 14.5244L154.481 185.721L155.213 185.364L71.5477 14.1676Z" fill="#254A61"/>
<path d="M72.2789 13.8125L71.5466 14.1692L155.212 185.366L155.944 185.009L72.2789 13.8125Z" fill="#234A62"/>
<path d="M73.0138 13.4555L72.2816 13.8122L155.947 185.009L156.679 184.652L73.0138 13.4555Z" fill="#214964"/>
<path d="M73.7451 13.0962L73.0128 13.4529L156.678 184.649L157.41 184.293L73.7451 13.0962Z" fill="#1F4865"/>
<path d="M74.4763 12.741L73.744 13.0978L157.409 184.294L158.141 183.937L74.4763 12.741Z" fill="#1D4766"/>
<path d="M75.2075 12.3859L74.4752 12.7426L158.14 183.939L158.873 183.582L75.2075 12.3859Z" fill="#1B4668"/>
<path d="M75.9385 12.0307L75.2063 12.3875L158.871 183.584L159.604 183.227L75.9385 12.0307Z" fill="#194569"/>
<path d="M75.9399 12.0304L100.634 0H196.141V165.431L159.603 183.231L75.9399 12.0304Z" fill="#194569"/>
</g>
<path d="M165.118 81.4659L156.865 66.9112H153.329V81.4659H145.824V44.1085H159.868C162.761 44.1085 165.227 44.6159 167.264 45.6348C169.3 46.6538 170.829 48.025 171.846 49.7568C172.862 51.4886 173.374 53.4216 173.374 55.5644C173.374 58.0258 172.66 60.2482 171.232 62.2274C169.804 64.2066 167.675 65.5736 164.853 66.32L173.803 81.4659H165.118ZM153.325 61.2881H159.595C161.632 61.2881 163.148 60.7975 164.152 59.8163C165.151 58.8351 165.651 57.4723 165.651 55.7237C165.651 53.9751 165.151 52.6836 164.152 51.736C163.152 50.7925 161.632 50.3187 159.595 50.3187H153.325V61.2881Z" fill="#194569"/>
<path d="M207.569 68.8862H185.86C186.036 71.0248 186.788 72.7063 188.111 73.9181C189.434 75.1299 191.059 75.738 192.991 75.738C195.78 75.738 197.762 74.5429 198.942 72.1528H207.035C206.179 75.0083 204.532 77.3524 202.105 79.189C199.673 81.0256 196.691 81.9439 193.155 81.9439C190.295 81.9439 187.733 81.3108 185.465 80.0444C183.197 78.778 181.425 76.9875 180.161 74.6645C178.893 72.3456 178.259 69.6704 178.259 66.6387C178.259 63.607 178.884 60.8772 180.136 58.5583C181.387 56.2395 183.139 54.4574 185.39 53.2078C187.641 51.9582 190.232 51.3334 193.163 51.3334C196.095 51.3334 198.514 51.9414 200.748 53.1533C202.983 54.3651 204.717 56.0885 205.948 58.3193C207.182 60.5501 207.795 63.108 207.795 65.9971C207.795 67.0664 207.724 68.0308 207.581 68.8862H207.569ZM200.013 63.8544C199.975 61.9297 199.283 60.3866 197.922 59.2251C196.565 58.0677 194.902 57.4849 192.937 57.4849C191.08 57.4849 189.514 58.0468 188.246 59.1705C186.977 60.2943 186.2 61.8542 185.915 63.8544H200.013Z" fill="#194569"/>
<path d="M254.413 51.8156L245.732 81.4659H237.639L232.225 60.7556L226.812 81.4659H218.664L209.929 51.8156H217.539L222.793 74.4003L228.475 51.8156H236.408L241.981 74.3458L247.235 51.8156H254.417H254.413Z" fill="#194569"/>
<path d="M258.352 58.5583C259.549 56.2395 261.174 54.4574 263.228 53.2078C265.282 51.9582 267.579 51.3334 270.116 51.3334C272.333 51.3334 274.269 51.7779 275.932 52.6711C277.595 53.5642 278.923 54.688 279.926 56.0424V51.8156H287.486V81.4659H279.926V77.1301C278.96 78.5223 277.629 79.6712 275.932 80.5811C274.236 81.4911 272.279 81.9439 270.065 81.9439C267.562 81.9439 265.286 81.3024 263.232 80.0192C261.179 78.7361 259.553 76.9246 258.356 74.589C257.159 72.2534 256.559 69.5697 256.559 66.5338C256.559 63.4979 257.155 60.8814 258.356 58.5583H258.352ZM278.855 61.9548C278.141 60.6508 277.175 59.6528 275.962 58.9567C274.748 58.2606 273.442 57.9126 272.048 57.9126C270.653 57.9126 269.368 58.2522 268.188 58.9273C267.008 59.6066 266.05 60.5962 265.32 61.8961C264.589 63.2002 264.219 64.7433 264.219 66.5255C264.219 68.3076 264.585 69.8716 265.32 71.2093C266.05 72.5469 267.016 73.5743 268.213 74.2871C269.41 75 270.687 75.3564 272.043 75.3564C273.4 75.3564 274.74 75.0083 275.958 74.3123C277.171 73.6162 278.137 72.6182 278.851 71.3141C279.565 70.0142 279.922 68.4501 279.922 66.6303C279.922 64.8104 279.565 63.2505 278.851 61.9465L278.855 61.9548Z" fill="#194569"/>
<path d="M306.107 52.7256C307.661 51.8324 309.438 51.3879 311.441 51.3879V59.2544H309.459C307.099 59.2544 305.322 59.8079 304.125 60.9149C302.928 62.0219 302.328 63.9466 302.328 66.6932V81.4617H294.823V51.8156H302.328V56.4198C303.294 54.8515 304.554 53.6187 306.107 52.7256Z" fill="#194569"/>
<path d="M316.346 58.5583C317.543 56.2395 319.177 54.4574 321.252 53.2078C323.322 51.9582 325.628 51.3334 328.165 51.3334C330.092 51.3334 331.936 51.7527 333.687 52.5914C335.438 53.43 336.829 54.5454 337.866 55.9376V41.8609H345.476V81.4617H337.866V77.0714C336.938 78.5348 335.632 79.7131 333.952 80.6021C332.272 81.4953 330.323 81.9397 328.11 81.9397C325.607 81.9397 323.322 81.2982 321.247 80.015C319.173 78.7319 317.539 76.9204 316.342 74.5848C315.145 72.2492 314.545 69.5655 314.545 66.5296C314.545 63.4938 315.141 60.8772 316.342 58.5541L316.346 58.5583ZM336.85 61.9548C336.136 60.6508 335.17 59.6528 333.956 58.9567C332.742 58.2606 331.436 57.9126 330.042 57.9126C328.647 57.9126 327.362 58.2522 326.182 58.9273C325.002 59.6066 324.049 60.5962 323.314 61.8961C322.583 63.2002 322.213 64.7433 322.213 66.5254C322.213 68.3076 322.579 69.8716 323.314 71.2093C324.049 72.5469 325.01 73.5743 326.207 74.2871C327.404 75 328.681 75.3564 330.038 75.3564C331.394 75.3564 332.734 75.0083 333.952 74.3123C335.17 73.6162 336.131 72.6182 336.845 71.3141C337.559 70.0142 337.916 68.4501 337.916 66.6303C337.916 64.8104 337.559 63.2505 336.845 61.9465L336.85 61.9548Z" fill="#194569"/>
<path d="M357.643 80.6356C355.715 79.7635 354.186 78.5768 353.061 77.0756C351.935 75.5786 351.318 73.9181 351.213 72.0982H358.768C358.911 73.2388 359.474 74.1865 360.457 74.9329C361.439 75.6834 362.661 76.0566 364.127 76.0566C365.593 76.0566 366.672 75.7715 367.479 75.2012C368.281 74.6309 368.684 73.9013 368.684 73.0082C368.684 72.0437 368.192 71.3225 367.21 70.8403C366.227 70.3581 364.665 69.8339 362.519 69.2636C360.301 68.7269 358.491 68.1776 357.08 67.6031C355.669 67.0328 354.455 66.1565 353.435 64.9823C352.418 63.8041 351.906 62.219 351.906 60.2188C351.906 58.5793 352.38 57.0781 353.325 55.7237C354.27 54.3693 355.631 53.2958 357.399 52.5117C359.167 51.7276 361.25 51.3334 363.644 51.3334C367.18 51.3334 370.003 52.2182 372.111 53.9835C374.219 55.7489 375.382 58.1306 375.592 61.1288H368.411C368.306 59.9505 367.81 59.0154 366.937 58.3193C366.059 57.6232 364.891 57.2752 363.426 57.2752C362.069 57.2752 361.024 57.5268 360.293 58.0258C359.558 58.5248 359.192 59.2209 359.192 60.114C359.192 61.112 359.692 61.871 360.692 62.3867C361.691 62.9025 363.245 63.4309 365.353 63.9676C367.495 64.5043 369.268 65.0578 370.658 65.6281C372.052 66.1984 373.257 67.0832 374.274 68.2782C375.294 69.4733 375.819 71.0541 375.857 73.0124C375.857 74.7232 375.382 76.2579 374.438 77.6165C373.493 78.9709 372.132 80.036 370.364 80.7992C368.596 81.5665 366.534 81.9481 364.173 81.9481C361.813 81.9481 359.562 81.512 357.634 80.6356H357.643Z" fill="#194569"/>
<path d="M152.069 99.438L149.112 94.3684H147.151V99.438H145.53V87.0345H149.541C150.477 87.0345 151.271 87.1938 151.918 87.5167C152.564 87.8354 153.052 88.2715 153.371 88.8166C153.69 89.3617 153.854 89.9865 153.854 90.6868C153.854 91.5422 153.606 92.2928 153.115 92.9469C152.623 93.6011 151.88 94.033 150.897 94.2468L154.018 99.4422H152.077L152.069 99.438ZM147.151 93.0685H149.541C150.418 93.0685 151.078 92.8505 151.519 92.4186C151.96 91.9867 152.178 91.408 152.178 90.6826C152.178 89.9572 151.96 89.3785 151.527 88.976C151.095 88.5734 150.431 88.3721 149.541 88.3721H147.151V93.0685Z" fill="#194569"/>
<path d="M165.218 95.1652H157.411C157.47 96.1254 157.802 96.876 158.402 97.4169C159.003 97.9578 159.729 98.2262 160.586 98.2262C161.287 98.2262 161.871 98.0627 162.341 97.7356C162.812 97.4085 163.139 96.9724 163.333 96.4273H165.08C164.819 97.3666 164.294 98.1256 163.513 98.7126C162.732 99.2997 161.754 99.5932 160.59 99.5932C159.662 99.5932 158.835 99.3877 158.104 98.9684C157.373 98.5533 156.802 97.962 156.386 97.1989C155.97 96.4357 155.765 95.5467 155.765 94.5404C155.765 93.534 155.966 92.6492 156.369 91.8902C156.773 91.1313 157.34 90.5484 158.07 90.1375C158.801 89.7266 159.641 89.5253 160.59 89.5253C161.539 89.5253 162.337 89.7265 163.051 90.1291C163.765 90.5316 164.315 91.0852 164.702 91.7938C165.088 92.4983 165.281 93.2992 165.281 94.1881C165.281 94.4984 165.264 94.8213 165.227 95.1652H165.218ZM163.186 92.2551C162.913 91.8106 162.539 91.4709 162.073 91.2403C161.607 91.0097 161.086 90.8923 160.515 90.8923C159.696 90.8923 158.998 91.1522 158.419 91.6764C157.839 92.2006 157.512 92.9218 157.432 93.8485H163.597C163.597 93.2321 163.459 92.6995 163.186 92.2551Z" fill="#194569"/>
<path d="M167.411 91.9028C167.814 91.148 168.368 90.5652 169.078 90.1501C169.788 89.7349 170.577 89.5253 171.459 89.5253C172.219 89.5253 172.925 89.7014 173.58 90.0494C174.231 90.3975 174.731 90.8587 175.075 91.429V86.2713H176.713V99.438H175.075V97.6056C174.756 98.1885 174.277 98.6623 173.651 99.0397C173.021 99.4129 172.287 99.6016 171.442 99.6016C170.598 99.6016 169.788 99.3877 169.082 98.96C168.377 98.5323 167.818 97.9327 167.415 97.1611C167.012 96.3896 166.81 95.5132 166.81 94.5278C166.81 93.5424 167.012 92.6576 167.415 91.9028H167.411ZM174.626 92.6241C174.328 92.0789 173.929 91.6596 173.425 91.3703C172.921 91.081 172.366 90.9342 171.757 90.9342C171.148 90.9342 170.598 91.0768 170.098 91.3619C169.599 91.647 169.2 92.0622 168.906 92.6073C168.608 93.1524 168.461 93.794 168.461 94.5278C168.461 95.2616 168.608 95.9241 168.906 96.4776C169.204 97.0311 169.599 97.4505 170.098 97.7398C170.598 98.0291 171.148 98.1759 171.757 98.1759C172.366 98.1759 172.917 98.0291 173.425 97.7398C173.929 97.4505 174.332 97.0269 174.626 96.4776C174.924 95.9241 175.071 95.2826 175.071 94.5487C175.071 93.8149 174.924 93.1734 174.626 92.6283V92.6241Z" fill="#194569"/>
<path d="M188.313 95.1652H180.51C180.568 96.1254 180.9 96.876 181.497 97.4169C182.097 97.9578 182.824 98.2262 183.68 98.2262C184.382 98.2262 184.966 98.0627 185.436 97.7356C185.906 97.4085 186.234 96.9724 186.427 96.4273H188.174C187.914 97.3666 187.389 98.1256 186.608 98.7126C185.827 99.2997 184.848 99.5932 183.685 99.5932C182.757 99.5932 181.929 99.3877 181.198 98.9684C180.468 98.5533 179.892 97.962 179.481 97.1989C179.065 96.4357 178.855 95.5467 178.855 94.5404C178.855 93.534 179.057 92.6492 179.46 91.8902C179.863 91.1313 180.43 90.5484 181.161 90.1375C181.891 89.7266 182.731 89.5253 183.68 89.5253C184.63 89.5253 185.428 89.7265 186.142 90.1291C186.856 90.5316 187.406 91.0852 187.792 91.7938C188.178 92.4983 188.372 93.2992 188.372 94.1881C188.372 94.4984 188.355 94.8213 188.317 95.1652H188.313ZM186.28 92.2551C186.007 91.8106 185.633 91.4709 185.167 91.2403C184.701 91.0097 184.18 90.8923 183.609 90.8923C182.79 90.8923 182.089 91.1522 181.513 91.6764C180.938 92.2006 180.606 92.9218 180.522 93.8485H186.688C186.688 93.2321 186.549 92.6995 186.276 92.2551H186.28Z" fill="#194569"/>
<path d="M199.362 95.1652H191.559C191.618 96.1254 191.95 96.876 192.55 97.4169C193.151 97.9578 193.877 98.2262 194.734 98.2262C195.436 98.2262 196.019 98.0627 196.49 97.7356C196.96 97.4085 197.288 96.9724 197.481 96.4273H199.228C198.968 97.3666 198.443 98.1256 197.661 98.7126C196.88 99.2997 195.902 99.5932 194.738 99.5932C193.81 99.5932 192.983 99.3877 192.252 98.9684C191.521 98.5533 190.95 97.962 190.534 97.1989C190.119 96.4357 189.909 95.5467 189.909 94.5404C189.909 93.534 190.11 92.6492 190.513 91.8902C190.917 91.1313 191.484 90.5484 192.214 90.1375C192.945 89.7266 193.785 89.5253 194.734 89.5253C195.683 89.5253 196.481 89.7265 197.195 90.1291C197.909 90.5316 198.459 91.0852 198.846 91.7938C199.232 92.4983 199.425 93.2992 199.425 94.1881C199.425 94.4984 199.409 94.8213 199.371 95.1652H199.362ZM197.33 92.2551C197.057 91.8106 196.683 91.4709 196.217 91.2403C195.751 91.0097 195.226 90.8923 194.659 90.8923C193.84 90.8923 193.142 91.1522 192.563 91.6764C191.988 92.2006 191.656 92.9218 191.576 93.8485H197.741C197.741 93.2321 197.607 92.6995 197.334 92.2551H197.33Z" fill="#194569"/>
<path d="M215.33 89.9781C215.922 90.2926 216.392 90.7665 216.737 91.3913C217.081 92.016 217.253 92.7834 217.253 93.6849V99.4339H215.649V93.9198C215.649 92.9469 215.41 92.2047 214.927 91.6848C214.448 91.169 213.797 90.909 212.974 90.909C212.151 90.909 211.458 91.1774 210.962 91.7183C210.462 92.2593 210.215 93.0392 210.215 94.0581V99.4297H208.61V93.9156C208.61 92.9427 208.371 92.2005 207.888 91.6806C207.405 91.1648 206.754 90.9048 205.935 90.9048C205.116 90.9048 204.419 91.1732 203.923 91.7141C203.424 92.2551 203.176 93.035 203.176 94.054V99.4255H201.555V89.6762H203.176V91.081C203.495 90.5694 203.928 90.1794 204.469 89.9069C205.011 89.6343 205.607 89.4959 206.258 89.4959C207.077 89.4959 207.804 89.6804 208.434 90.0494C209.064 90.4184 209.534 90.9552 209.841 91.668C210.114 90.9803 210.563 90.4478 211.193 90.0662C211.823 89.6888 212.524 89.4959 213.297 89.4959C214.07 89.4959 214.734 89.6553 215.33 89.9656V89.9781Z" fill="#194569"/>
<path d="M233.078 89.6846L227.198 104.025H225.523L227.446 99.329L223.507 89.6846H225.309L228.374 97.5846L231.402 89.6846H233.078Z" fill="#194569"/>
<path d="M236.476 98.9726C235.732 98.5575 235.153 97.9662 234.728 97.2031C234.304 96.4399 234.094 95.5509 234.094 94.5446C234.094 93.5382 234.313 92.666 234.745 91.9028C235.178 91.1397 235.77 90.5526 236.518 90.1417C237.265 89.7307 238.105 89.5295 239.029 89.5295C239.953 89.5295 240.793 89.7349 241.54 90.1417C242.288 90.5526 242.88 91.1355 243.313 91.8944C243.745 92.6534 243.964 93.5382 243.964 94.5446C243.964 95.5509 243.741 96.4399 243.296 97.2031C242.851 97.9662 242.246 98.5575 241.486 98.9726C240.726 99.3877 239.882 99.5974 238.953 99.5974C238.025 99.5974 237.21 99.3919 236.467 98.9726H236.476ZM240.6 97.7649C241.112 97.4924 241.524 97.0815 241.839 96.5363C242.154 95.9912 242.309 95.3245 242.309 94.5446C242.309 93.7646 242.154 93.0979 241.847 92.5528C241.536 92.0077 241.133 91.6009 240.637 91.3326C240.138 91.0642 239.596 90.9342 239.016 90.9342C238.437 90.9342 237.878 91.0684 237.387 91.3326C236.895 91.6009 236.497 92.0077 236.203 92.5528C235.904 93.0979 235.757 93.7604 235.757 94.5446C235.757 95.3287 235.904 96.008 236.194 96.5531C236.484 97.0982 236.874 97.505 237.362 97.7733C237.849 98.0417 238.382 98.1759 238.966 98.1759C239.55 98.1759 240.096 98.0375 240.604 97.7649H240.6Z" fill="#194569"/>
<path d="M254.765 89.6846V99.4339H253.144V97.9914C252.838 98.4904 252.405 98.8762 251.851 99.1571C251.301 99.4339 250.692 99.5764 250.024 99.5764C249.264 99.5764 248.579 99.4171 247.974 99.1068C247.37 98.7923 246.891 98.3226 246.538 97.6937C246.19 97.0647 246.013 96.3015 246.013 95.4V89.6888H247.617V95.1861C247.617 96.1464 247.861 96.8844 248.348 97.4001C248.835 97.9159 249.499 98.1759 250.343 98.1759C251.187 98.1759 251.893 97.9075 252.393 97.375C252.892 96.8424 253.14 96.0625 253.14 95.0436V89.6888H254.761L254.765 89.6846Z" fill="#194569"/>
<path d="M260.351 89.9698C260.88 89.6595 261.523 89.5085 262.283 89.5085V91.1816H261.855C260.036 91.1816 259.129 92.167 259.129 94.1336V99.4339H257.508V89.6846H259.129V91.2697C259.415 90.712 259.822 90.2801 260.351 89.9698Z" fill="#194569"/>
<path d="M278.486 87.0345V99.438H276.865V93.8149H270.54V99.438H268.919V87.0345H270.54V92.4773H276.865V87.0345H278.486Z" fill="#194569"/>
<path d="M281.245 91.9028C281.648 91.148 282.203 90.5652 282.912 90.1501C283.622 89.7349 284.407 89.5253 285.273 89.5253C286.138 89.5253 286.868 89.7098 287.498 90.0788C288.128 90.4478 288.599 90.909 288.905 91.4667V89.6888H290.543V99.438H288.905V97.6224C288.586 98.1927 288.107 98.6623 287.469 99.0355C286.835 99.4087 286.091 99.5974 285.252 99.5974C284.412 99.5974 283.601 99.3835 282.9 98.9558C282.198 98.5281 281.644 97.9285 281.241 97.1569C280.838 96.3854 280.636 95.509 280.636 94.5236C280.636 93.5382 280.838 92.6534 281.241 91.8986L281.245 91.9028ZM288.464 92.6241C288.166 92.0789 287.767 91.6596 287.259 91.3703C286.755 91.081 286.201 90.9342 285.592 90.9342C284.983 90.9342 284.433 91.0768 283.933 91.3619C283.433 91.647 283.034 92.0622 282.74 92.6073C282.442 93.1524 282.295 93.794 282.295 94.5278C282.295 95.2616 282.442 95.9241 282.74 96.4776C283.038 97.0311 283.433 97.4505 283.933 97.7398C284.433 98.0291 284.983 98.1759 285.592 98.1759C286.201 98.1759 286.755 98.0291 287.259 97.7398C287.763 97.4505 288.166 97.0269 288.464 96.4776C288.763 95.9283 288.91 95.2826 288.91 94.5488C288.91 93.8149 288.763 93.1734 288.464 92.6283V92.6241Z" fill="#194569"/>
<path d="M296.137 89.9698C296.666 89.6595 297.309 89.5085 298.069 89.5085V91.1816H297.641C295.822 91.1816 294.915 92.167 294.915 94.1336V99.4339H293.294V89.6846H294.915V91.2697C295.201 90.712 295.608 90.2801 296.137 89.9698Z" fill="#194569"/>
<path d="M299.938 91.9028C300.341 91.148 300.895 90.5652 301.605 90.1501C302.315 89.7349 303.105 89.5253 303.987 89.5253C304.747 89.5253 305.452 89.7014 306.107 90.0494C306.758 90.3975 307.258 90.8587 307.603 91.429V86.2713H309.24V99.438H307.603V97.6056C307.283 98.1885 306.805 98.6623 306.179 99.0397C305.549 99.4129 304.814 99.6016 303.97 99.6016C303.126 99.6016 302.315 99.3877 301.609 98.96C300.904 98.5323 300.345 97.9327 299.942 97.1611C299.539 96.3896 299.337 95.5132 299.337 94.5278C299.337 93.5424 299.539 92.6576 299.942 91.9028H299.938ZM307.157 92.6241C306.859 92.0789 306.46 91.6596 305.952 91.3703C305.448 91.081 304.894 90.9342 304.285 90.9342C303.676 90.9342 303.126 91.0768 302.626 91.3619C302.126 91.647 301.727 92.0622 301.433 92.6073C301.135 93.1524 300.988 93.794 300.988 94.5278C300.988 95.2616 301.135 95.9241 301.433 96.4776C301.731 97.0311 302.126 97.4505 302.626 97.7398C303.126 98.0291 303.676 98.1759 304.285 98.1759C304.894 98.1759 305.448 98.0291 305.952 97.7398C306.456 97.4505 306.859 97.0269 307.157 96.4776C307.456 95.9283 307.603 95.2826 307.603 94.5487C307.603 93.8149 307.456 93.1734 307.157 92.6283V92.6241Z" fill="#194569"/>
<path d="M332.356 87.0345L328.757 99.438H326.938L324.053 89.4582L321.059 99.438L319.257 99.4548L315.78 87.0345H317.51L320.219 97.5511L323.213 87.0345H325.032L327.883 97.5134L330.609 87.0345H332.356Z" fill="#194569"/>
<path d="M335.909 98.9726C335.166 98.5575 334.586 97.9662 334.162 97.2031C333.738 96.4399 333.528 95.5509 333.528 94.5446C333.528 93.5382 333.746 92.666 334.179 91.9028C334.611 91.1397 335.203 90.5526 335.951 90.1417C336.698 89.7307 337.538 89.5295 338.462 89.5295C339.386 89.5295 340.226 89.7349 340.974 90.1417C341.721 90.5526 342.313 91.1355 342.746 91.8944C343.179 92.6534 343.397 93.5382 343.397 94.5446C343.397 95.5509 343.174 96.4399 342.729 97.2031C342.284 97.9662 341.679 98.5575 340.919 98.9726C340.159 99.3877 339.315 99.5974 338.387 99.5974C337.459 99.5974 336.644 99.3919 335.9 98.9726H335.909ZM340.033 97.7649C340.541 97.4924 340.957 97.0815 341.272 96.5363C341.587 95.9912 341.742 95.3245 341.742 94.5446C341.742 93.7646 341.587 93.0979 341.28 92.5528C340.974 92.0077 340.566 91.6009 340.071 91.3326C339.571 91.0642 339.033 90.9342 338.45 90.9342C337.866 90.9342 337.312 91.0684 336.82 91.3326C336.329 91.6009 335.93 92.0077 335.636 92.5528C335.338 93.0979 335.191 93.7604 335.191 94.5446C335.191 95.3287 335.338 96.008 335.627 96.5531C335.917 97.0982 336.308 97.505 336.795 97.7733C337.282 98.0417 337.816 98.1759 338.399 98.1759C338.983 98.1759 339.529 98.0375 340.037 97.7649H340.033Z" fill="#194569"/>
<path d="M348.386 89.9698C348.916 89.6595 349.558 89.5085 350.318 89.5085V91.1816H349.89C348.071 91.1816 347.164 92.167 347.164 94.1336V99.4339H345.543V89.6846H347.164V91.2697C347.45 90.712 347.857 90.2801 348.386 89.9698Z" fill="#194569"/>
<path d="M357.643 99.438L353.813 95.1316V99.438H352.191V86.2713H353.813V94.012L357.571 89.6888H359.835L355.236 94.5446L359.852 99.438H357.643Z" fill="#194569"/>
<path d="M214.432 109.64L210.688 130.808C210.56 131.448 210.496 132.104 210.496 132.776C210.496 134.664 211.04 136.088 212.128 137.048C213.248 137.976 214.832 138.44 216.88 138.44C219.28 138.44 221.248 137.8 222.784 136.52C224.352 135.24 225.36 133.336 225.808 130.808L229.552 109.64H235.024L231.28 130.808C230.8 133.528 229.792 135.832 228.256 137.72C226.752 139.608 224.928 141.016 222.784 141.944C220.64 142.872 218.368 143.336 215.968 143.336C212.704 143.336 210.048 142.504 208 140.84C205.984 139.176 204.976 136.76 204.976 133.592C204.976 132.536 205.056 131.608 205.216 130.808L208.96 109.64H214.432ZM245.701 120.44C246.853 119.224 248.293 118.2 250.021 117.368C251.781 116.536 253.669 116.12 255.685 116.12C257.701 116.12 259.493 116.552 261.061 117.416C262.629 118.28 263.845 119.512 264.709 121.112C265.573 122.712 266.005 124.584 266.005 126.728C266.005 127.656 265.909 128.632 265.717 129.656C265.237 132.312 264.261 134.696 262.789 136.808C261.349 138.888 259.573 140.52 257.461 141.704C255.381 142.856 253.189 143.432 250.885 143.432C248.869 143.432 247.141 143.032 245.701 142.232C244.293 141.4 243.189 140.376 242.389 139.16L239.509 155.576H234.037L240.901 116.552H246.373L245.701 120.44ZM260.149 129.656C260.277 129.048 260.341 128.392 260.341 127.688C260.341 125.544 259.701 123.88 258.421 122.696C257.173 121.48 255.589 120.872 253.669 120.872C252.293 120.872 250.917 121.224 249.541 121.928C248.197 122.632 247.029 123.656 246.037 125C245.045 126.344 244.389 127.928 244.069 129.752C243.941 130.36 243.877 131.016 243.877 131.72C243.877 133.864 244.501 135.56 245.749 136.808C247.029 138.056 248.613 138.68 250.501 138.68C251.909 138.68 253.285 138.328 254.629 137.624C256.005 136.888 257.189 135.832 258.181 134.456C259.173 133.08 259.829 131.48 260.149 129.656ZM269.304 129.656C269.784 127 270.744 124.648 272.184 122.6C273.656 120.552 275.448 118.968 277.56 117.848C279.672 116.696 281.896 116.12 284.232 116.12C285.96 116.12 287.592 116.504 289.128 117.272C290.664 118.008 291.832 119 292.632 120.248L294.888 107.48H300.408L294.12 143H288.6L289.32 139.016C288.168 140.328 286.728 141.4 285 142.232C283.304 143.032 281.432 143.432 279.384 143.432C277.368 143.432 275.576 142.984 274.008 142.088C272.44 141.192 271.208 139.928 270.312 138.296C269.448 136.632 269.016 134.728 269.016 132.584C269.016 131.624 269.112 130.648 269.304 129.656ZM290.952 129.752C291.08 129.144 291.144 128.488 291.144 127.784C291.144 125.64 290.504 123.96 289.224 122.744C287.976 121.496 286.408 120.872 284.52 120.872C283.112 120.872 281.736 121.224 280.392 121.928C279.048 122.6 277.88 123.608 276.888 124.952C275.896 126.264 275.24 127.832 274.92 129.656C274.792 130.264 274.728 130.92 274.728 131.624C274.728 133.8 275.352 135.528 276.6 136.808C277.88 138.056 279.464 138.68 281.352 138.68C282.76 138.68 284.136 138.328 285.48 137.624C286.824 136.92 287.992 135.896 288.984 134.552C289.976 133.176 290.632 131.576 290.952 129.752ZM301.835 129.656C302.315 127 303.275 124.648 304.715 122.6C306.187 120.552 307.979 118.968 310.091 117.848C312.203 116.696 314.411 116.12 316.715 116.12C318.795 116.12 320.539 116.536 321.947 117.368C323.355 118.168 324.411 119.176 325.115 120.392L325.787 116.552H331.307L326.651 143H321.131L321.851 139.064C320.699 140.312 319.243 141.352 317.483 142.184C315.755 143.016 313.867 143.432 311.819 143.432C309.835 143.432 308.059 142.984 306.491 142.088C304.955 141.192 303.739 139.928 302.843 138.296C301.979 136.632 301.547 134.728 301.547 132.584C301.547 131.624 301.643 130.648 301.835 129.656ZM323.483 129.752C323.611 129.144 323.675 128.488 323.675 127.784C323.675 125.64 323.035 123.96 321.755 122.744C320.507 121.496 318.939 120.872 317.051 120.872C315.643 120.872 314.267 121.224 312.923 121.928C311.579 122.6 310.411 123.608 309.419 124.952C308.427 126.264 307.771 127.832 307.451 129.656C307.323 130.264 307.259 130.92 307.259 131.624C307.259 133.8 307.883 135.528 309.131 136.808C310.411 138.056 311.995 138.68 313.883 138.68C315.291 138.68 316.667 138.328 318.011 137.624C319.355 136.92 320.523 135.896 321.515 134.552C322.507 133.176 323.163 131.576 323.483 129.752ZM341.518 135.656C341.454 136.104 341.422 136.392 341.422 136.52C341.422 137.192 341.63 137.688 342.046 138.008C342.462 138.296 343.15 138.44 344.11 138.44H347.47L346.654 143H342.334C340.222 143 338.606 142.584 337.486 141.752C336.366 140.888 335.806 139.528 335.806 137.672C335.806 136.968 335.87 136.296 335.998 135.656L338.59 121.016H335.47L336.238 116.552H339.406L340.558 109.976H346.078L344.926 116.552H351.31L350.542 121.016H344.11L341.518 135.656ZM367.826 116.12C371.122 116.12 373.746 117.048 375.698 118.904C377.682 120.76 378.674 123.256 378.674 126.392C378.674 127.128 378.594 128.008 378.434 129.032C378.306 129.736 378.082 130.6 377.762 131.624H357.554C357.522 131.848 357.506 132.184 357.506 132.632C357.506 134.52 358.082 136.024 359.234 137.144C360.418 138.264 361.954 138.824 363.842 138.824C366.818 138.824 369.106 137.592 370.706 135.128H376.61C375.394 137.56 373.602 139.56 371.234 141.128C368.866 142.664 366.13 143.432 363.026 143.432C360.818 143.432 358.882 143 357.218 142.136C355.554 141.272 354.258 140.04 353.33 138.44C352.402 136.808 351.938 134.904 351.938 132.728C351.938 131.8 352.034 130.808 352.226 129.752C352.706 127.032 353.682 124.648 355.154 122.6C356.626 120.52 358.45 118.92 360.626 117.8C362.834 116.68 365.234 116.12 367.826 116.12ZM372.962 127.688C373.026 127.112 373.058 126.696 373.058 126.44C373.058 124.68 372.466 123.288 371.282 122.264C370.13 121.24 368.626 120.728 366.77 120.728C364.818 120.728 363.058 121.352 361.49 122.6C359.922 123.848 358.85 125.544 358.274 127.688H372.962ZM391.067 143.432C389.243 143.432 387.579 143.128 386.075 142.52C384.571 141.88 383.387 141 382.523 139.88C381.659 138.728 381.227 137.416 381.227 135.944C381.227 135.688 381.259 135.336 381.323 134.888H386.651C386.523 136.104 386.891 137.112 387.755 137.912C388.619 138.712 389.835 139.112 391.403 139.112C392.939 139.112 394.203 138.84 395.195 138.296C396.187 137.752 396.683 136.952 396.683 135.896C396.683 135 396.267 134.28 395.435 133.736C394.635 133.192 393.339 132.584 391.547 131.912C389.851 131.24 388.475 130.616 387.419 130.04C386.363 129.464 385.451 128.68 384.683 127.688C383.915 126.664 383.531 125.4 383.531 123.896C383.531 122.36 383.963 121.016 384.827 119.864C385.723 118.68 386.955 117.768 388.523 117.128C390.123 116.456 391.947 116.12 393.995 116.12C395.851 116.12 397.499 116.44 398.939 117.08C400.411 117.688 401.547 118.568 402.347 119.72C403.179 120.84 403.595 122.136 403.595 123.608C403.595 124.056 403.579 124.392 403.547 124.616H398.363C398.491 123.368 398.123 122.36 397.259 121.592C396.427 120.824 395.227 120.44 393.659 120.44C392.283 120.44 391.163 120.728 390.299 121.304C389.467 121.88 389.051 122.664 389.051 123.656C389.051 124.648 389.483 125.448 390.347 126.056C391.211 126.632 392.539 127.272 394.331 127.976C395.963 128.616 397.291 129.224 398.315 129.8C399.339 130.376 400.219 131.144 400.955 132.104C401.691 133.064 402.059 134.264 402.059 135.704C402.059 137.272 401.579 138.648 400.619 139.832C399.691 140.984 398.395 141.88 396.731 142.52C395.067 143.128 393.179 143.432 391.067 143.432Z" fill="#B18D01"/>
</svg>
